<?xml version="1.0"?>
<svg xmlns="http://www.w3.org/2000/svg" xmlns:xlink="http://www.w3.org/1999/xlink" xmlns:svgjs="http://svgjs.com/svgjs" version="1.1" width="512" height="512" x="0" y="0" viewBox="0 0 64 64" style="enable-background:new 0 0 512 512" xml:space="preserve" class=""><g><g><g><g><path d="m51.6 62h-39.2c-3.7 0-6.8-3-6.8-6.8v-30.3c0-2 .9-3.9 2.5-5.2l19.6-16.2c2.5-2.1 6.1-2.1 8.6 0l19.6 16.1c1.6 1.3 2.5 3.2 2.5 5.2v30.3c0 3.9-3.1 6.9-6.8 6.9zm-19.6-56c-.6 0-1.3.2-1.8.6l-19.6 16.2c-.6.5-1 1.3-1 2.1v30.3c0 1.5 1.2 2.8 2.8 2.8h39.2c1.5 0 2.8-1.2 2.8-2.8v-30.3c0-.8-.4-1.6-1-2.1l-19.6-16.2c-.5-.4-1.2-.6-1.8-.6z" fill="#ffffff" data-original="#000000" class=""/></g></g><g><g><path d="m44 53.2h-24c-1.1 0-2-.9-2-2s.9-2 2-2h24c1.1 0 2 .9 2 2s-.9 2-2 2z" fill="#ffffff" data-original="#000000" class=""/></g></g></g></g></svg>
