<?xml version="1.0"?>
<svg xmlns="http://www.w3.org/2000/svg" xmlns:xlink="http://www.w3.org/1999/xlink" xmlns:svgjs="http://svgjs.com/svgjs" version="1.1" width="512" height="512" x="0" y="0" viewBox="0 0 512 512" style="enable-background:new 0 0 512 512" xml:space="preserve"><g><path d="m453.943 231.846c0 4.418-3.582 8-8 8h-189.195c-4.418 0-8-3.582-8-8s3.582-8 8-8h189.195c4.418 0 8 3.581 8 8zm-197.195 56.309h117.121c4.418 0 8-3.582 8-8s-3.582-8-8-8h-117.121c-4.418 0-8 3.582-8 8s3.582 8 8 8zm-56.624-169.692c2.22 7.168.99 14.443-3.463 20.484-4.454 6.041-11.039 9.368-18.543 9.368h-96.983c-7.504 0-14.089-3.327-18.543-9.368-4.454-6.042-5.683-13.316-3.463-20.485 6.744-21.778 22.69-38.534 42.832-46.613-8.345-7.556-13.597-18.469-13.597-30.586-.001-22.753 18.51-41.263 41.262-41.263s41.263 18.51 41.263 41.263c0 12.118-5.252 23.031-13.598 30.587 20.143 8.079 36.089 24.835 42.833 46.613zm-95.761-77.2c0 13.93 11.333 25.263 25.263 25.263s25.263-11.333 25.263-25.263-11.333-25.263-25.263-25.263-25.263 11.333-25.263 25.263zm80.477 81.933c-7.533-24.326-29.722-40.67-55.214-40.67s-47.681 16.344-55.213 40.669c-.708 2.285-.362 4.332 1.058 6.258 1.419 1.926 3.272 2.862 5.664 2.862h96.982c2.392 0 4.245-.936 5.664-2.862 1.42-1.926 1.766-3.973 1.059-6.257zm15.284 177.11c2.22 7.167.99 14.442-3.463 20.484-4.454 6.041-11.039 9.368-18.543 9.368h-96.983c-7.504 0-14.089-3.327-18.543-9.368-4.454-6.042-5.683-13.317-3.463-20.485 6.744-21.778 22.69-38.533 42.832-46.613-8.345-7.556-13.597-18.468-13.597-30.586 0-22.752 18.511-41.263 41.263-41.263s41.263 18.511 41.263 41.263c0 12.118-5.252 23.031-13.598 30.586 20.142 8.08 36.088 24.835 42.832 46.614zm-95.761-77.2c0 13.93 11.333 25.263 25.263 25.263s25.263-11.333 25.263-25.263-11.333-25.263-25.263-25.263-25.263 11.333-25.263 25.263zm80.477 81.933c-7.533-24.326-29.722-40.671-55.214-40.671s-47.681 16.345-55.213 40.67c-.708 2.285-.362 4.332 1.058 6.258s3.272 2.862 5.664 2.862h96.982c2.392 0 4.244-.937 5.664-2.862s1.766-3.973 1.059-6.257zm15.284 177.109c2.22 7.167.99 14.442-3.463 20.483s-11.039 9.368-18.543 9.368h-96.983c-7.504 0-14.09-3.327-18.543-9.367-4.454-6.042-5.683-13.317-3.463-20.485 6.744-21.778 22.69-38.534 42.832-46.613-8.345-7.556-13.597-18.469-13.597-30.586 0-22.752 18.511-41.263 41.263-41.263s41.263 18.511 41.263 41.263c0 12.117-5.252 23.031-13.598 30.586 20.142 8.08 36.088 24.836 42.832 46.614zm-95.761-77.2c0 13.93 11.333 25.263 25.263 25.263s25.263-11.333 25.263-25.263-11.333-25.263-25.263-25.263-25.263 11.334-25.263 25.263zm80.477 81.934c-7.533-24.327-29.722-40.671-55.214-40.671s-47.681 16.344-55.213 40.67c-.708 2.285-.362 4.332 1.058 6.258 1.419 1.926 3.272 2.861 5.664 2.861h96.982c2.392 0 4.245-.936 5.664-2.861 1.42-1.926 1.766-3.973 1.059-6.257zm71.908-380.57h117.121c4.418 0 8-3.582 8-8s-3.582-8-8-8h-117.121c-4.418 0-8 3.582-8 8s3.582 8 8 8zm0-48.309h189.195c4.418 0 8-3.582 8-8s-3.582-8-8-8h-189.195c-4.418 0-8 3.582-8 8s3.582 8 8 8zm189.195 347.685h-189.195c-4.418 0-8 3.582-8 8s3.582 8 8 8h189.195c4.418 0 8-3.582 8-8s-3.582-8-8-8zm-72.074 48.309h-117.121c-4.418 0-8 3.582-8 8s3.582 8 8 8h117.121c4.418 0 8-3.582 8-8s-3.581-8-8-8z" fill="#ffffff" data-original="#000000"/></g></svg>
