<svg xmlns="http://www.w3.org/2000/svg" viewBox="0 0 500 500"><g id="freepik--background-complete--inject-17"><path d="M82.59,325.25l-13.12.28-6.66.11c-2.23.05-4.47,0-6.7.05h-.44v-.45l-.06-11.19v-.5h.5l13.24.06c4.42,0,8.83.11,13.24.17h.28v.27c0,1.9-.09,3.79-.13,5.65Zm0,0-.14-5.66c0-1.86-.11-3.7-.13-5.53l.27.27c-4.41.05-8.82.16-13.24.17l-13.24.06.5-.5,0,11.19-.45-.45c2.18,0,4.36,0,6.55.06l6.58.11Z" style="fill:#ebebeb"></path><path d="M67.82,339.36l-13.12.28-6.66.11c-2.23.05-4.47,0-6.7.05H40.9v-.45l-.06-11.19v-.5h.5l13.24.06c4.41,0,8.83.11,13.24.17h.28v.27c0,1.9-.08,3.79-.13,5.65Zm0,0-.14-5.66c-.05-1.86-.11-3.7-.13-5.53l.27.27c-4.41.05-8.83.16-13.24.17l-13.24.06.5-.5-.05,11.19-.45-.45c2.18,0,4.36,0,6.55.06l6.58.11Z" style="fill:#ebebeb"></path><path d="M416.3,206.27l-13.13.28-6.66.11c-2.22,0-4.46,0-6.69.05h-.45v-.45l-.05-11.19v-.51h.5l13.24.06c4.41,0,8.82.11,13.24.16h.27v.27c0,1.9-.08,3.78-.13,5.65Zm0,0-.14-5.66c-.05-1.86-.12-3.7-.13-5.53l.27.27c-4.42.05-8.83.16-13.24.16l-13.24.07.5-.5-.06,11.19-.44-.45c2.18,0,4.36,0,6.54.06l6.58.11Z" style="fill:#ebebeb"></path><path d="M401.53,220.38l-13.13.27-6.66.12c-2.22,0-4.46,0-6.69,0h-.45v-.45l-.05-11.19v-.51h.51l13.24.06c4.41,0,8.82.11,13.24.16h.27v.27c0,1.9-.09,3.78-.13,5.65Zm0,0-.15-5.66c0-1.86-.11-3.7-.13-5.53l.28.27c-4.42,0-8.83.16-13.24.16l-13.24.07.5-.5-.06,11.19-.44-.45c2.18,0,4.35,0,6.54.06l6.58.11Z" style="fill:#ebebeb"></path><path d="M386.81,206.27l-13.12.28-6.66.11c-2.23,0-4.47,0-6.7.05h-.44v-.45l-.06-11.19v-.51h.5l13.24.06c4.42,0,8.83.11,13.24.16h.28v.27c0,1.9-.09,3.78-.13,5.65Zm0,0-.14-5.66c0-1.86-.11-3.7-.13-5.53l.27.27c-4.41.05-8.82.16-13.24.16l-13.24.07.5-.5-.05,11.19-.45-.45c2.18,0,4.36,0,6.55.06l6.58.11Z" style="fill:#ebebeb"></path><path d="M458.66,339.36l-13.13.28-6.66.11c-2.22.05-4.46,0-6.69.05h-.45v-.45l-.05-11.19v-.5h.5l13.24.06c4.41,0,8.83.11,13.24.17h.27v.27c0,1.9-.08,3.79-.13,5.65Zm0,0-.14-5.66c0-1.86-.12-3.7-.13-5.53l.27.27c-4.41.05-8.83.16-13.24.17l-13.24.06.5-.5-.06,11.19-.44-.45c2.18,0,4.36,0,6.54.06l6.58.11Z" style="fill:#ebebeb"></path><path d="M443.89,56.92l-13.13.27-6.66.12c-2.22,0-4.46,0-6.69,0H417v-.44l0-11.19v-.51h.51l13.24.06c4.41,0,8.82.11,13.24.16h.27v.27c0,1.89-.09,3.78-.13,5.65Zm0,0-.14-5.66c-.05-1.86-.12-3.7-.14-5.53l.28.27c-4.42,0-8.83.16-13.24.16l-13.24.07.5-.5-.06,11.19-.44-.45c2.18,0,4.35,0,6.54.05l6.58.12Z" style="fill:#ebebeb"></path><path d="M458.66,71l-13.13.27-6.66.12c-2.22,0-4.46,0-6.69,0h-.45V71l-.05-11.19v-.51h.5l13.24.06c4.41,0,8.83.11,13.24.16h.27v.27c0,1.89-.08,3.78-.13,5.65Zm0,0-.14-5.66c0-1.86-.12-3.7-.13-5.53l.27.27c-4.41,0-8.83.16-13.24.16l-13.24.06.5-.49L432.62,71l-.44-.45c2.18,0,4.36,0,6.54,0l6.58.12Z" style="fill:#ebebeb"></path><path d="M67.82,56.92l-13.12.27L48,57.31c-2.23,0-4.47,0-6.7,0H40.9v-.44l-.06-11.19v-.51h.5l13.24.06c4.41,0,8.83.11,13.24.16h.28v.27c0,1.89-.08,3.78-.13,5.65Zm0,0-.14-5.66c-.05-1.86-.11-3.7-.13-5.53l.27.27c-4.41,0-8.83.16-13.24.16l-13.24.07.5-.5-.05,11.19-.45-.45c2.18,0,4.36,0,6.55.05l6.58.12Z" style="fill:#ebebeb"></path><rect x="398.86" y="65.54" width="49.11" height="49.11" style="fill:#fff"></rect><path d="M396.31,63v54.22h54.21V63ZM448,114.65H398.86V65.54H448Z" style="fill:#dbdbdb"></path><rect x="416.81" y="77.52" width="16.98" height="38.28" transform="translate(521.95 -328.65) rotate(90)" style="fill:#ebebeb"></rect><rect x="413.61" y="80.29" width="19.61" height="19.61" transform="translate(513.52 -333.32) rotate(90)" style="fill:#c7c7c7"></rect><rect x="450.53" y="62.99" width="2.09" height="54.22" style="fill:#c7c7c7"></rect><rect x="398.86" y="135.27" width="49.11" height="49.11" style="fill:#fff"></rect><rect x="407.3" y="143.13" width="12.82" height="37.04" style="fill:#c7c7c7"></rect><path d="M396.31,132.72v54.22h54.21V132.72ZM448,184.38H398.86V135.27H448Z" style="fill:#dbdbdb"></path><rect x="413.61" y="150.02" width="19.61" height="19.61" style="fill:#ebebeb"></rect><rect x="450.53" y="132.72" width="2.09" height="54.22" style="fill:#c7c7c7"></rect><rect x="398.86" y="205.01" width="49.11" height="49.11" style="fill:#fff"></rect><rect x="404.31" y="211.7" width="26.95" height="16.11" style="fill:#ebebeb"></rect><path d="M396.31,202.45v54.22h54.21V202.45ZM448,254.12H398.86V205H448Z" style="fill:#dbdbdb"></path><rect x="413.61" y="219.76" width="19.61" height="19.61" style="fill:#c7c7c7"></rect><rect x="450.53" y="202.45" width="2.09" height="54.22" style="fill:#c7c7c7"></rect><rect x="48.5" y="58.6" width="125.93" height="193.1" style="fill:#ebebeb"></rect><rect x="55.36" y="66.34" width="53.18" height="85.89" style="fill:#fff"></rect><rect x="114.39" y="66.34" width="53.18" height="85.89" style="fill:#fff"></rect><rect x="55.36" y="158.08" width="53.18" height="85.89" style="fill:#fff"></rect><rect x="114.39" y="158.08" width="53.18" height="85.89" style="fill:#fff"></rect><rect x="48.5" y="58.6" width="29.83" height="276.26" style="fill:#dbdbdb"></rect><polygon points="72.67 71.74 72.91 101.61 72.99 131.48 73.15 191.22 72.99 250.96 72.91 280.83 72.67 310.7 72.44 280.83 72.36 250.96 72.2 191.22 72.36 131.48 72.44 101.61 72.67 71.74" style="fill:#ebebeb"></polygon><polygon points="58.98 78.66 59.21 105.33 59.34 132.01 59.45 185.35 59.34 238.69 59.21 265.36 58.98 292.04 58.75 265.36 58.61 238.69 58.51 185.35 58.62 132.01 58.75 105.33 58.98 78.66" style="fill:#ebebeb"></polygon><polygon points="65.83 84.96 66.06 116.19 66.14 147.42 66.3 209.88 66.14 272.34 66.06 303.57 65.83 334.8 65.59 303.57 65.51 272.34 65.35 209.88 65.51 147.42 65.6 116.19 65.83 84.96" style="fill:#ebebeb"></polygon><polygon points="53.88 73.31 54.11 106 54.2 138.69 54.36 204.06 54.2 269.43 54.12 302.12 53.88 334.8 53.65 302.12 53.57 269.43 53.41 204.06 53.57 138.69 53.65 106 53.88 73.31" style="fill:#ebebeb"></polygon><rect x="144.61" y="58.6" width="29.83" height="276.26" transform="translate(319.04 393.47) rotate(180)" style="fill:#dbdbdb"></rect><polygon points="150.26 71.74 150.49 101.61 150.58 131.48 150.74 191.22 150.58 250.96 150.5 280.83 150.26 310.7 150.03 280.83 149.95 250.96 149.79 191.22 149.95 131.48 150.03 101.61 150.26 71.74" style="fill:#ebebeb"></polygon><polygon points="163.96 78.66 164.19 105.33 164.32 132.01 164.43 185.35 164.32 238.69 164.19 265.36 163.96 292.04 163.73 265.36 163.6 238.69 163.49 185.35 163.6 132.01 163.73 105.33 163.96 78.66" style="fill:#ebebeb"></polygon><polygon points="157.11 84.96 157.34 116.19 157.43 147.42 157.58 209.88 157.43 272.34 157.34 303.57 157.11 334.8 156.88 303.57 156.8 272.34 156.64 209.88 156.8 147.42 156.88 116.19 157.11 84.96" style="fill:#ebebeb"></polygon><polygon points="169.05 73.31 169.28 106 169.37 138.69 169.53 204.06 169.37 269.43 169.29 302.12 169.05 334.8 168.82 302.12 168.74 269.43 168.58 204.06 168.74 138.69 168.82 106 169.05 73.31" style="fill:#ebebeb"></polygon><path d="M346.08,112.78A24.13,24.13,0,0,0,352,117.7a24.54,24.54,0,1,0-5.88-4.92Z" style="fill:#ebebeb"></path><path d="M358.27,91.77a7.47,7.47,0,1,0,9.34-4.93A7.47,7.47,0,0,0,358.27,91.77Z" style="fill:#fff"></path><path d="M347,109.83l-.91,3A24.13,24.13,0,0,0,352,117.7a24.42,24.42,0,0,0,18.77,2.7l.91-2.93A12.9,12.9,0,0,0,347,109.83Z" style="fill:#fff"></path><path d="M374.28,161.45a11.56,11.56,0,1,0-6.13-12.14A11.5,11.5,0,0,0,374.28,161.45Z" style="fill:#ebebeb"></path><path d="M376,150.12a3.52,3.52,0,1,0,3.23-3.78A3.51,3.51,0,0,0,376,150.12Z" style="fill:#fff"></path><path d="M374.17,160l.11,1.45a11.58,11.58,0,0,0,12.13-1l-.12-1.44a6.08,6.08,0,1,0-12.12.95Z" style="fill:#fff"></path><path d="M66.2,372.21a11.56,11.56,0,1,0-9.77-9.45A11.6,11.6,0,0,0,66.2,372.21Z" style="fill:#ebebeb"></path><path d="M64.07,361a3.52,3.52,0,1,0,1.81-4.64A3.52,3.52,0,0,0,64.07,361Z" style="fill:#fff"></path><path d="M65.62,370.88l.58,1.33a11.56,11.56,0,0,0,11.14-4.89L76.76,366a6.08,6.08,0,1,0-11.14,4.88Z" style="fill:#fff"></path></g><g id="freepik--Shadow--inject-17"><ellipse cx="250" cy="448.41" rx="177.59" ry="17.1" style="fill:#ebebeb"></ellipse></g><g id="freepik--Plant--inject-17"><path d="M440.91,283.05c-3.8-3.72-8.71-8.22-14.51-6.61-5.47,1.51-7.56,7.47-8.54,12.44-1.26,6.4-2.24,12.87-3.25,19.32s-2,13-2.93,19.55q-.8,5.52-1.57,11.05c-.26,1.84-.51,3.68-.77,5.52s-.55,3.61-.65,5.44c0,.58.88.66,1,.11.7-3.07,1-6.27,1.44-9.39s.91-6.27,1.37-9.4q1.37-9.34,2.79-18.68t2.9-18.67c.85-5.27,1.24-11.82,5.92-15.3a9,9,0,0,1,8.74-.82c3.08,1.17,5.54,3.38,7.94,5.56C440.88,283.24,441,283.12,440.91,283.05Z" style="fill:#263238"></path><path d="M435.71,279.25s-7.76-2.8-11.59,2.87.75,20.08,36.1,28.21a99.9,99.9,0,0,0-8.51-32C444.13,261.85,430.63,268.1,435.71,279.25Z" style="fill:#7E57C2"></path><path d="M458.19,308a30.41,30.41,0,0,0-1.78-2.87c-.59-.91-1.19-1.81-1.79-2.72-.46-.68-.92-1.35-1.39-2a4.18,4.18,0,0,0,.07-.51l.12-.91c.08-.67.18-1.33.28-2s.21-1.32.33-2a10.3,10.3,0,0,1,.47-2.08c0-.11-.15-.16-.16,0A7.75,7.75,0,0,1,454,294c-.09.3-.16.6-.24.9-.17.67-.34,1.34-.49,2s-.25,1.24-.36,1.87c-.05.3-.1.61-.14.91-.63-.9-1.27-1.79-1.93-2.66-1.88-2.48-3.87-4.86-5.92-7.18,0,0,0,0,0-.06.18-3.72.09-7.39.92-11.05,0-.1-.13-.15-.15,0a38.16,38.16,0,0,0-1.32,10.57c-.74-.83-1.48-1.64-2.24-2.45q-2.58-2.79-5.26-5.46a.08.08,0,0,0-.12.11c3,3.2,5.81,6.54,8.56,9.94a63.3,63.3,0,0,0-6.46.24c-2.4.18-4.78.49-7.16.82-.1,0-.07.17,0,.15a68.54,68.54,0,0,1,7.15-.64c2.31-.09,4.6,0,6.9,0,1.49,1.85,3,3.71,4.42,5.58h-.33c-.54,0-1.09,0-1.63,0-1.07,0-2.15.09-3.22.18a49.56,49.56,0,0,0-6.52,1,.08.08,0,1,0,0,.16c2.17-.25,4.34-.45,6.53-.53,1,0,2.08,0,3.13,0h1.62a2.15,2.15,0,0,0,.89-.08q1.44,1.85,2.85,3.71c.75,1,1.49,2,2.22,3s1.41,2.15,2.24,3.11A.08.08,0,0,0,458.19,308Z" style="fill:#263238"></path><path d="M439.09,287.28a25.07,25.07,0,0,0-3.78-.19c-1.26,0-2.52,0-3.78.09a.08.08,0,1,0,0,.15c1.28-.09,2.56-.11,3.84-.09s2.47.13,3.71.1C439.13,287.34,439.14,287.28,439.09,287.28Z" style="fill:#263238"></path><path d="M450.19,290.13c.15-1.21.3-2.42.55-3.61a.08.08,0,1,0-.15,0c-.18,1.18-.41,2.36-.59,3.55-.09.6-.17,1.19-.24,1.79a8.78,8.78,0,0,0-.15,1.69c0,.1.18.11.21,0a9.39,9.39,0,0,0,.18-1.68C450.06,291.27,450.12,290.7,450.19,290.13Z" style="fill:#263238"></path><path d="M447.87,276.75c-.31,1.17-.62,2.36-.84,3.56-.11.61-.2,1.22-.28,1.83a7.12,7.12,0,0,0-.12,1.78c0,.05.08.05.09,0a9.73,9.73,0,0,0,.28-1.7c.08-.59.17-1.18.27-1.76.21-1.23.43-2.45.75-3.67C448,276.71,447.89,276.65,447.87,276.75Z" style="fill:#263238"></path><path d="M401.83,348.45q-.29-3.34-.65-6.67c-.46-4.41-1-8.8-1.59-13.19s-1.15-8.76-1.85-13.12a33.62,33.62,0,0,0-1.35-6,5.68,5.68,0,0,0-3.3-3.72c-4.16-1.44-7,2.88-8.65,5.93-.05.09.09.16.14.08,1-1.45,3.79-5.51,6.94-5.32,2.13.13,3.83,1.63,4.85,6.93,2.53,13.19,4.82,40,5.09,41.71.14.93.8.89.8-.11C402.28,352.82,402,350.63,401.83,348.45Z" style="fill:#263238"></path><path d="M385.57,310.08s3.63-12.84-4.41-6.42c-13.37,10.69-13.85,33.93-13.85,33.93s23.78-13.82,26.74-22.93C398.46,301.09,385.57,310.08,385.57,310.08Z" style="fill:#7E57C2"></path><path d="M390.07,316.38c-1.87.38-3.76.63-5.65.9l-2.67.37c-.6.09-1.21.14-1.82.22,1.77-2.44,3.56-4.87,5.25-7.36.07-.1-.08-.2-.15-.12a54.55,54.55,0,0,0-4,4.59L380,312a36.19,36.19,0,0,1-1.13-3.48c0-.1-.18,0-.16.05.33,1.17.56,2.37.87,3.55s.65,2.27,1.06,3.38c-.88,1.13-1.71,2.28-2.52,3.46-.41-1.16-.92-2.29-1.28-3.47a.08.08,0,0,0-.15.05c.43,1.3.65,2.66,1.06,4-.55.8-1.1,1.59-1.62,2.4-1,1.48-1.86,3-2.75,4.52a.34.34,0,0,0-.21.35c-1.5,2.6-2.93,5.24-4.34,7.9a.08.08,0,0,0,.14.08c1.41-2.63,3-5.19,4.62-7.7h0a3.27,3.27,0,0,1,.78-.15l.82-.18c.62-.14,1.23-.3,1.84-.45,1.2-.3,2.4-.58,3.62-.79.1,0,.06-.17,0-.15-1.44.27-2.89.43-4.34.6-.69.08-1.37.17-2.06.28h-.1q1.29-2,2.6-3.86c.87-1.26,1.76-2.49,2.65-3.73.82-.11,1.64-.33,2.46-.49l2.76-.53c1.84-.37,3.67-.78,5.52-1.09C390.21,316.52,390.17,316.36,390.07,316.38Z" style="fill:#263238"></path><path d="M375.78,317.65c-.12-.34-.22-.69-.33-1a21.8,21.8,0,0,1-.54-2.15c0-.1-.18-.05-.15,0,.15.72.32,1.45.49,2.17a13,13,0,0,0,.62,2.13.14.14,0,0,0,.27-.08C376,318.37,375.89,318,375.78,317.65Z" style="fill:#263238"></path><path d="M392.5,313.41c-1.08.16-2.18.24-3.27.33s-2.18.25-3.27.41c-.06,0-.06.1,0,.1,1.1-.08,2.19-.16,3.28-.3s2.17-.31,3.26-.38C392.61,313.56,392.6,313.39,392.5,313.41Z" style="fill:#263238"></path><path d="M419.33,332.2c-.42-9.45-1-18.89-2-28.3-.47-4.69-1-9.38-1.66-14A101.17,101.17,0,0,0,413,276.27a26.09,26.09,0,0,0-4.52-9.58,10.28,10.28,0,0,0-9.14-4c-4.14.51-7.47,3.12-10.35,5.95-3.23,3.18-6.19,6.64-9.19,10l-2.25,2.6c-.07.07,0,.18.12.11q4.38-5.06,9.15-9.76c2.94-2.88,6-6,10-7.23a10.33,10.33,0,0,1,5.83-.14,9.3,9.3,0,0,1,4,2.53,20.79,20.79,0,0,1,4.49,8.74c2.55,8.69,3.46,17.8,4.4,26.77s1.61,18.25,2.07,27.4.82,18.42,1.7,27.59c.11,1.14.26,2.26.4,3.39.1.76,1.28.76,1.21,0C420.19,351.18,419.76,341.7,419.33,332.2Z" style="fill:#263238"></path><path d="M388.46,269.67s5.4-10-1-13.19-27.72,20.62-34,55.46c0,0,34.48-15.25,46.18-30.45S398.14,262.94,388.46,269.67Z" style="fill:#7E57C2"></path><path d="M393.53,277.8c-3.88,0-7.74-.3-11.62-.27.73-.83,1.45-1.67,2.19-2.49a38.81,38.81,0,0,0,3-3.52c.05-.08-.07-.2-.14-.13a27.2,27.2,0,0,0-2.94,2.94c-1,1-1.93,2.06-2.89,3.1-1.48,1.6-2.94,3.23-4.38,4.86,0-.16,0-.31,0-.47,0-.67,0-1.35,0-2,0-1.32,0-2.63.05-3.94,0-2.67,0-5.35.2-8,0-.11-.15-.1-.16,0-.19,2.67-.46,5.33-.59,8-.07,1.31-.1,2.63-.11,3.94,0,.68,0,1.36,0,2,0,.37,0,.76,0,1.14l-.69.76c-3.09,3.53-6,7.19-8.89,10.91,0-.21,0-.42-.05-.62,0-.41-.09-.82-.14-1.23-.1-.89-.22-1.77-.35-2.66s-.26-1.66-.4-2.49-.38-1.87-.45-2.81a.08.08,0,1,0-.16,0,22.43,22.43,0,0,1,.32,2.84l.24,2.56c.08.85.15,1.7.24,2.56,0,.4.08.82.13,1.22,0,.21,0,.41.07.62a1.23,1.23,0,0,0,.17.49l-1.48,1.92c-2,2.59-3.87,5.21-5.79,7.82-.06.08.05.19.12.11,1.81-2.37,3.68-4.7,5.58-7,1.42.06,2.86,0,4.28-.06s3,0,4.49,0c.1,0,.1-.16,0-.16-1.49,0-3,0-4.48,0s-2.75-.06-4.12,0c1.67-2,3.35-4,5-6.05.62-.73,1.24-1.46,1.85-2.2a8.35,8.35,0,0,0,1.73.06h2c1.28,0,2.55,0,3.82-.05,2.63,0,5.27-.13,7.9-.14.1,0,.1-.16,0-.16-2.63,0-5.26-.14-7.9-.21l-3.82-.09-2,0c-.39,0-.79,0-1.18,0,1.45-1.72,2.89-3.44,4.34-5.15a.14.14,0,0,0,.08-.09c1.42-1.67,2.83-3.34,4.26-5l.59-.67c4,.12,8-.14,12-.06A.08.08,0,0,0,393.53,277.8Z" style="fill:#263238"></path><path d="M391.55,284.65h-.94a.07.07,0,1,0,0,.14h.94A.08.08,0,0,0,391.55,284.65Z" style="fill:#263238"></path><path d="M389.46,284.66c-1.24,0-2.48,0-3.72-.08l-1.87-.06a7.15,7.15,0,0,0-1.73,0,.06.06,0,0,0,0,.12,6.64,6.64,0,0,0,1.73.12l1.86,0h3.72A.08.08,0,0,0,389.46,284.66Z" style="fill:#263238"></path><path d="M378.62,296.29a52.64,52.64,0,0,0-7.62-.69s0,.06,0,.06c2.53.24,5.07.38,7.58.79C378.68,296.46,378.72,296.31,378.62,296.29Z" style="fill:#263238"></path><path d="M368.26,285.2c0-.22-.05-.44-.08-.66-.07-.5-.14-1-.22-1.5-.15-.94-.32-1.89-.5-2.83,0-.09-.16-.06-.15,0,.12,1,.22,1.95.31,2.92.05.48.08,1,.13,1.44a3.92,3.92,0,0,0,.19,1.37.18.18,0,0,0,.33-.05A1.75,1.75,0,0,0,368.26,285.2Z" style="fill:#263238"></path><path d="M419,256.84c-1.23-2.29-2.8-5.33-5.88-5.13-2.54.16-3.69,2.75-4.23,4.9-1.68,6.63-1.8,13.63-2.13,20.43-.69,14.37-1.31,28.75-1.4,43.14,0,4,0,8,0,12s0,8.16.29,12.22a.3.3,0,0,0,.6,0c0-3.47-.1-7-.12-10.43s0-6.8.07-10.19q.17-10.32.55-20.62c.25-6.84.55-13.66.84-20.49.15-3.42.29-6.83.45-10.24s.29-6.62.67-9.91c.21-1.84.48-3.68.86-5.5a7.71,7.71,0,0,1,1.59-3.68,3.48,3.48,0,0,1,4.5-.33,9.65,9.65,0,0,1,3.19,4C418.9,257,419,256.94,419,256.84Z" style="fill:#263238"></path><path d="M418.16,255.75s-2.53-8.94,3.06-4.47c9.32,7.44,9.65,23.63,9.65,23.63s-16.56-9.62-18.62-16C409.18,249.49,418.16,255.75,418.16,255.75Z" style="fill:#7E57C2"></path><path d="M427.39,268.27l-.47-.73a4.82,4.82,0,0,0,0-.76c0-.39,0-.77,0-1.16,0-.75.05-1.51.08-2.26,0-.11-.15-.1-.16,0,0,.74-.06,1.48-.08,2.22,0,.38,0,.75,0,1.12,0,.14,0,.31,0,.47-.65-1-1.31-2-2-3l-.62-.84a17.8,17.8,0,0,1-.05-2.92q0-1.56.06-3.12c0-.1-.15-.1-.15,0,0,1.09-.09,2.17-.14,3.25a22.2,22.2,0,0,0-.07,2.31c-1.6-2.18-3.29-4.27-5-6.36-.06-.07-.18,0-.13.1,1.07,1.35,2.09,2.73,3.09,4.12-2-.45-3.93-.71-5.91-1-.11,0-.14.14,0,.16,2.09.31,4.15.84,6.22,1.3h0c.8,1.12,1.58,2.24,2.36,3.37.32.45.63.92.94,1.38h-.09l-.64-.09-1.38-.13c-1-.07-1.91-.12-2.87-.17-.1,0-.1.15,0,.16.95,0,1.88.09,2.82.19l1.48.18.65.08.19,0L427,268.5c.94,1.38,1.77,2.87,2.77,4.2a.08.08,0,0,0,.13-.08A45.13,45.13,0,0,0,427.39,268.27Z" style="fill:#263238"></path><path d="M423.26,258.17c0-.35,0-.69,0-1a16,16,0,0,1,.09-2.19c0-.12-.16-.13-.16,0,0,.72-.08,1.45-.11,2.17,0,.36,0,.73,0,1.09v.5a1.51,1.51,0,0,0,0,.52c0,.07.11.06.14,0a1.49,1.49,0,0,0,0-.47C423.26,258.53,423.26,258.35,423.26,258.17Z" style="fill:#263238"></path><path d="M421.22,261.88c-.62-.11-1.25-.14-1.87-.19s-1.37-.12-2.05-.21a.08.08,0,1,0,0,.16c1.31.08,2.61.32,3.92.36C421.27,262,421.29,261.89,421.22,261.88Z" style="fill:#263238"></path><path d="M426.42,261.93c.05.07,0,.26,0,.34v.29c0,.21,0,.42,0,.63v.62a1.26,1.26,0,0,0,0,.55s.05,0,.06,0a.57.57,0,0,0,0-.26v-.29c0-.21,0-.42,0-.62v-.92c0-.09,0-.27,0-.34S426.31,261.78,426.42,261.93Z" style="fill:#263238"></path><path d="M419.38,304.56c-3.49-2.62-6.62-6.38-11.3-6.56-3.87-.15-6.58,2.76-8.13,6a33.93,33.93,0,0,0-1.9,5.34c-.7,2.45-1.35,4.91-2,7.38-1.21,4.86-2.26,9.76-3.1,14.7-.47,2.75-.91,5.51-1.26,8.28a68.93,68.93,0,0,0-.81,8.48.44.44,0,0,0,.86.1c.47-2.32.67-4.71,1-7s.7-4.71,1.1-7.06c.8-4.69,1.72-9.37,2.77-14,1-4.38,2-8.83,3.4-13.1,1-3.06,2.64-6.63,5.94-7.73,5-1.67,9.6,2.58,13.28,5.34C419.35,304.74,419.46,304.62,419.38,304.56Z" style="fill:#263238"></path><path d="M415.77,302.06s-3.21-9.17,1.44-11c7-2.7,25.18,17.82,21.61,49.27,0,0-14.08-7.76-24.47-16.48s-13.06-20.12-8.48-23.07S415.77,302.06,415.77,302.06Z" style="fill:#7E57C2"></path><path d="M436.72,333.62a24.15,24.15,0,0,0-1.7-3.17c-.59-1.08-1.19-2.15-1.81-3.21-1.22-2.07-2.42-4.15-3.66-6.2-.2-.33-.4-.66-.61-1,0-.12.05-.25.08-.37l.21-.91c.15-.68.27-1.37.4-2.06.25-1.34.49-2.71.85-4a.08.08,0,0,0-.16,0c-.29,1.35-.71,2.67-1.11,4-.19.65-.4,1.29-.57,1.95l-.18.67c-1.5-2.45-3-4.89-4.66-7.25a3.34,3.34,0,0,0,.16-1c.05-.46.11-.92.16-1.38.12-1,.24-2.07.39-3.1a58,58,0,0,1,1.11-6c0-.1-.13-.13-.16,0-.5,2-1,4-1.42,6-.19,1-.36,2-.49,3-.07.5-.12,1-.17,1.49l-.06.46c-.51-.72-1-1.43-1.54-2.13-1.61-2.11-3.27-4.18-4.95-6.23-.07-.08-.2,0-.13.09a111.31,111.31,0,0,1,7.91,11.56l1.37,2.22-.45-.05c-.59-.08-1.19-.12-1.78-.17l-3.55-.31c-2.37-.19-4.75-.33-7.12-.59-.1,0-.13.15,0,.16,2.39.27,4.78.66,7.17,1,1.17.17,2.35.32,3.52.47a13.34,13.34,0,0,0,2.72.28l2.79,4.54a4.38,4.38,0,0,0-.63,0h-3.39c-1.52,0-3.05,0-4.58,0-.1,0-.08.16,0,.16,1.55,0,3.09.1,4.63.18l2.2.13,1.1.08a2.26,2.26,0,0,0,1,0l2.38,3.87c.72,1.18,1.46,2.37,2.21,3.54a29.07,29.07,0,0,0,2.39,3.59A.09.09,0,0,0,436.72,333.62Z" style="fill:#263238"></path><path d="M430,308.2a21.76,21.76,0,0,1-.63,3c-.26,1-.56,2-.89,3a.1.1,0,1,0,.19.06q.46-1.48.84-3c.24-1,.4-2,.65-3C430.19,308.13,430,308.1,430,308.2Z" style="fill:#263238"></path><path d="M419.67,314.35a1.13,1.13,0,0,0-.77-.29l-1.33-.18c-.82-.11-1.65-.2-2.48-.3-1.71-.2-3.43-.37-5.14-.59-.1,0-.13.15,0,.16,1.62.2,3.23.44,4.84.66l2.38.3,1.14.13a4.1,4.1,0,0,1,1.31.23A.07.07,0,0,0,419.67,314.35Z" style="fill:#263238"></path><path d="M430,328.17c-.81-.07-1.62-.09-2.43-.12l-1.23,0-.59,0A3.94,3.94,0,0,1,425,328c-.11,0-.12.18,0,.16a3.47,3.47,0,0,1,.72,0l.64,0,1.23.08c.81,0,1.63.09,2.44.1C430.07,328.35,430.08,328.18,430,328.17Z" style="fill:#263238"></path><path d="M435,324.66c.09-.46.18-.93.26-1.39.17-.9.33-1.81.5-2.72,0-.1-.13-.12-.16,0-.2.88-.39,1.76-.59,2.64-.1.45-.2.89-.29,1.33-.05.2-.09.41-.13.61a1.61,1.61,0,0,0-.07.65c0,.08.12.14.17.06A3.27,3.27,0,0,0,435,324.66Z" style="fill:#263238"></path><polygon points="387.28 344.66 388.26 355.81 391.59 393.44 421.07 393.44 425.23 355.81 426.46 344.66 387.28 344.66" style="fill:#455a64"></polygon><polygon points="387.28 344.66 388.26 355.81 425.23 355.81 426.46 344.66 387.28 344.66" style="fill:#263238"></polygon><rect x="384.36" y="341.62" width="45.01" height="9.04" transform="translate(813.74 692.29) rotate(180)" style="fill:#455a64"></rect></g><g id="freepik--Floor--inject-17"><polygon points="39.97 393.56 92.48 393.32 144.99 393.23 250 393.07 355.01 393.23 407.52 393.32 460.03 393.56 407.52 393.81 355.01 393.9 250 394.06 144.99 393.9 92.48 393.81 39.97 393.56" style="fill:#263238"></polygon></g><g id="freepik--Device--inject-17"><path d="M331.58,62.42H168.4a16.66,16.66,0,0,0-16.5,16.82V415.13a16.67,16.67,0,0,0,16.5,16.81H331.58a16.68,16.68,0,0,0,16.52-16.81V79.24A16.67,16.67,0,0,0,331.58,62.42Zm6.19,342.32c0,8.84-6.62,16-14.78,16H177c-8.18,0-14.8-7.16-14.8-16V92c0-18,6.62-18.89,14.8-18.89h29.25c1.7,0,3.09,1.93,3.09,4.32v1c0,5.6,3.07,5.62,6.83,5.62H283.8c3.8,0,6.85,0,6.85-5.62v-1c0-2.39,1.37-4.32,3.1-4.32H323c8.16,0,14.78,2.39,14.78,18.89Z" style="fill:#263238"></path><path d="M337.78,92.24V405c0,8.84-6.62,16-14.78,16H177c-8.18,0-14.8-7.15-14.8-16V92.24c0-18,6.62-18.89,14.8-18.89h29.25c1.7,0,3.09,1.94,3.09,4.33v1c0,5.61,3.07,5.63,6.83,5.63h67.62c3.8,0,6.85,0,6.85-5.63v-1c0-2.39,1.37-4.33,3.1-4.33H323C331.16,73.35,337.78,75.75,337.78,92.24Z" style="fill:#fff"></path><path d="M337.78,92.25v28.37H162.22V92.25c0-18,6.62-18.89,14.8-18.89h29.25c1.7,0,3.09,1.93,3.09,4.32v1c0,5.6,3.07,5.62,6.83,5.62h67.62c3.8,0,6.85,0,6.85-5.62v-1c0-2.39,1.37-4.32,3.1-4.32H323C331.16,73.36,337.78,75.75,337.78,92.25Z" style="fill:#7E57C2"></path><path d="M259.22,77.06H240.77a1.14,1.14,0,0,1-1.14-1.14h0a1.14,1.14,0,0,1,1.14-1.14h18.45a1.14,1.14,0,0,1,1.14,1.14h0A1.14,1.14,0,0,1,259.22,77.06Z" style="fill:#fff"></path><g id="freepik--u5Zjqx--inject-17"><path d="M201.65,80.1l-.28.29c-.05,0-.11.1-.16.16a3.77,3.77,0,0,0-2.72-1.13,3.81,3.81,0,0,0-2.73,1.13l-.15-.16-.28-.28h0l0,0,.36-.32a4.15,4.15,0,0,1,.83-.52,4.25,4.25,0,0,1,1.09-.37l.55-.07h.48c.12,0,.25,0,.37,0a3.91,3.91,0,0,1,1,.24,3.81,3.81,0,0,1,.68.32,4.09,4.09,0,0,1,.64.45l.3.27Z" style="fill:#fff"></path><path d="M196.66,81.43l-.45-.44a3.11,3.11,0,0,1,1.82-.91,3.21,3.21,0,0,1,2.73.9c-.15.16-.3.3-.45.45a2.6,2.6,0,0,0-3.65,0Z" style="fill:#fff"></path><path d="M199.87,81.88l-.45.44a1.33,1.33,0,0,0-1.87,0l-.44-.45A1.94,1.94,0,0,1,199.87,81.88Z" style="fill:#fff"></path><path d="M198.89,82.73a.4.4,0,1,1-.4-.4A.4.4,0,0,1,198.89,82.73Z" style="fill:#fff"></path></g><path d="M174.1,81a1.17,1.17,0,1,1,1.17,1.16A1.16,1.16,0,0,1,174.1,81Z" style="fill:#fff"></path><path d="M177.77,81a1.16,1.16,0,1,1,1.16,1.16A1.16,1.16,0,0,1,177.77,81Z" style="fill:#fff"></path><path d="M181.43,81a1.17,1.17,0,1,1,1.17,1.16A1.16,1.16,0,0,1,181.43,81Z" style="fill:#fff"></path><path d="M185.1,81a1.16,1.16,0,1,1,1.16,1.16A1.16,1.16,0,0,1,185.1,81Z" style="fill:#fff"></path><path d="M188.76,81a1.17,1.17,0,1,1,1.17,1.16A1.16,1.16,0,0,1,188.76,81Z" style="fill:#fff"></path><path d="M325.05,83.5h-9.47V79.11h9.47Zm-9-.48h8.51V79.59h-8.51Z" style="fill:#fff"></path><rect x="316.36" y="79.86" width="6.11" height="2.9" style="fill:#fff"></rect><rect x="325.05" y="80.13" width="0.84" height="2.35" style="fill:#fff"></rect><polygon points="179.29 109.77 174.1 104.91 179.29 100.05 180.09 100.9 175.82 104.91 180.09 108.91 179.29 109.77" style="fill:#fff"></polygon><rect x="314.72" y="100.74" width="9.39" height="1.5" style="fill:#fff"></rect><rect x="314.72" y="104.16" width="9.39" height="1.5" style="fill:#fff"></rect><rect x="314.72" y="107.57" width="9.39" height="1.5" style="fill:#fff"></rect><path d="M230.53,103.28v5.18a.5.5,0,0,1-.49.48.48.48,0,0,1-.48-.48v-3.69l-1.27,1.75a.46.46,0,0,1-.39.2h0a.48.48,0,0,1-.4-.2l-1.26-1.75v3.69a.49.49,0,0,1-1,0v-5.18a.49.49,0,0,1,.48-.48h0a.46.46,0,0,1,.38.2l1.75,2.42,1.75-2.42a.46.46,0,0,1,.39-.2h0A.5.5,0,0,1,230.53,103.28Z" style="fill:#fff"></path><path d="M236.92,103.63l-1.8,2.46v2.37a.47.47,0,0,1-.48.48.49.49,0,0,1-.48-.48v-2.37l-1.78-2.46a.46.46,0,0,1,.09-.67.47.47,0,0,1,.67.1l1.5,2.06,1.5-2.06a.48.48,0,0,1,.78.57Z" style="fill:#fff"></path><path d="M242.63,106.56h-1.08v1.9a.49.49,0,0,1-1,0v-5.18a.48.48,0,0,1,.49-.48h1.57a1.88,1.88,0,1,1,0,3.76Zm-1.08-1h1.08a.91.91,0,0,0,.91-.89.92.92,0,0,0-.91-.92h-1.08Z" style="fill:#fff"></path><path d="M249.75,108.21a.5.5,0,0,1-.31.62l-.19,0h0a.65.65,0,0,1-.35-.09.93.93,0,0,1-.28-.31,2.39,2.39,0,0,1-.18-1,.69.69,0,0,0-.11-.38.7.7,0,0,0-.26-.25,1.3,1.3,0,0,0-.49-.21h-1v1.9a.49.49,0,0,1-1,0v-5.18a.47.47,0,0,1,.48-.48h1.57a1.88,1.88,0,0,1,1.2,3.33,1.15,1.15,0,0,1,.3.32,1.65,1.65,0,0,1,.29,1,2.6,2.6,0,0,0,0,.52A.47.47,0,0,1,249.75,108.21Zm-1.23-3.52a.92.92,0,0,0-.91-.92h-1.08v1.81h1.08A.9.9,0,0,0,248.52,104.69Z" style="fill:#fff"></path><path d="M255.86,103.56a3.24,3.24,0,0,1,0,4.44,2.88,2.88,0,0,1-2.1.94,3,3,0,0,1-2.15-.94,3.27,3.27,0,0,1,0-4.44,2.91,2.91,0,0,1,2.15-.93A2.84,2.84,0,0,1,255.86,103.56Zm-.12,2.22a2.3,2.3,0,0,0-.59-1.53,1.9,1.9,0,0,0-2.81,0,2.25,2.25,0,0,0,0,3.06,1.88,1.88,0,0,0,2.81,0A2.28,2.28,0,0,0,255.74,105.78Z" style="fill:#fff"></path><path d="M258.46,108.46v-5.18a.48.48,0,0,1,.49-.48h2.87a.49.49,0,0,1,0,1h-2.38v1.61h2a.49.49,0,0,1,0,1h-2v2.11a.49.49,0,0,1-.49.48A.48.48,0,0,1,258.46,108.46Z" style="fill:#fff"></path><path d="M263.83,103.28a.47.47,0,0,1,.48-.48.48.48,0,0,1,.49.48v5.18a.48.48,0,0,1-.49.48.47.47,0,0,1-.48-.48Z" style="fill:#fff"></path><path d="M266.44,108.46v-5.18a.48.48,0,0,1,.48-.48.49.49,0,0,1,.5.48V108h2.37a.49.49,0,1,1,0,1h-2.87A.48.48,0,0,1,266.44,108.46Z" style="fill:#fff"></path><path d="M271.38,108.46v-5.18a.47.47,0,0,1,.48-.48h2.87a.49.49,0,0,1,0,1h-2.38v1.61h2a.49.49,0,0,1,0,1h-2V108h2.38a.49.49,0,0,1,0,1h-2.87A.48.48,0,0,1,271.38,108.46Z" style="fill:#fff"></path><circle cx="227.14" cy="168.05" r="9.96" style="fill:#ebebeb"></circle><circle cx="275.88" cy="139.96" r="6.94" style="fill:#455a64"></circle><path d="M225.74,190.58a1.14,1.14,0,0,0,2.22-.35V187a.46.46,0,0,1,.91,0v3.28a2,2,0,0,1-4,.63.44.44,0,0,1,.29-.57A.45.45,0,0,1,225.74,190.58Z" style="fill:#263238"></path><path d="M234,190.22v1.62a.44.44,0,0,1-.44.44.46.46,0,0,1-.43-.36,1.89,1.89,0,0,1-2.5-.25,2.08,2.08,0,0,1-.56-1.45,2,2,0,0,1,.56-1.45,1.88,1.88,0,0,1,2.5-.26.46.46,0,0,1,.43-.36.45.45,0,0,1,.44.45Zm-.88,0a1.2,1.2,0,0,0-.32-.85,1,1,0,0,0-.77-.34,1,1,0,0,0-.76.34,1.2,1.2,0,0,0-.32.85,1.22,1.22,0,0,0,.32.85,1,1,0,0,0,.76.32,1.06,1.06,0,0,0,.77-.32A1.22,1.22,0,0,0,233.16,190.22Z" style="fill:#263238"></path><path d="M235.46,191.1a.43.43,0,0,1,.62-.07,1.54,1.54,0,0,0,.91.36,1.13,1.13,0,0,0,.56-.15.33.33,0,0,0,.15-.25.1.1,0,0,0,0-.08s0-.06-.1-.1a1.9,1.9,0,0,0-.66-.23h0a3,3,0,0,1-.72-.22,1.38,1.38,0,0,1-.57-.48,1,1,0,0,1-.14-.52,1.15,1.15,0,0,1,.49-.91,1.82,1.82,0,0,1,1-.3,2.13,2.13,0,0,1,1.24.45.45.45,0,0,1,.13.61.43.43,0,0,1-.61.12A1.42,1.42,0,0,0,237,189a.84.84,0,0,0-.49.15c-.11.08-.14.15-.14.19a.08.08,0,0,0,0,.07.18.18,0,0,0,.09.08,1.59,1.59,0,0,0,.6.2h0a2.88,2.88,0,0,1,.77.24,1.36,1.36,0,0,1,.59.48,1.13,1.13,0,0,1-.37,1.51,1.93,1.93,0,0,1-1.07.33,2.42,2.42,0,0,1-1.47-.57A.44.44,0,0,1,235.46,191.1Z" style="fill:#263238"></path><path d="M240.1,191.67a2.07,2.07,0,0,1-.57-1.45,2.13,2.13,0,0,1,.57-1.44,1.94,1.94,0,0,1,1.42-.63,1.82,1.82,0,0,1,1.38.63,2.05,2.05,0,0,1,.58,1.44,2,2,0,0,1-.58,1.45,1.82,1.82,0,0,1-1.38.63A1.94,1.94,0,0,1,240.1,191.67Zm.33-1.45a1.34,1.34,0,0,0,.3.88,1.16,1.16,0,0,0,.79.3,1.1,1.1,0,0,0,.76-.3,1.26,1.26,0,0,0,.33-.88,1.24,1.24,0,0,0-.33-.86,1.16,1.16,0,0,0-.76-.31,1.21,1.21,0,0,0-.79.31A1.32,1.32,0,0,0,240.43,190.22Z" style="fill:#263238"></path><path d="M248.33,189.87v2a.44.44,0,0,1-.43.44.45.45,0,0,1-.44-.44v-2a.84.84,0,0,0-.85-.84.82.82,0,0,0-.83.84v2a.13.13,0,0,1,0,.08.45.45,0,0,1-.43.36.44.44,0,0,1-.44-.44v-3.25a.44.44,0,0,1,.84-.18,1.63,1.63,0,0,1,.88-.26A1.73,1.73,0,0,1,248.33,189.87Z" style="fill:#263238"></path><path d="M252.34,190.84a.43.43,0,0,1,.6-.06,2.71,2.71,0,0,0,1.58.64,1.77,1.77,0,0,0,1-.31.73.73,0,0,0,.36-.59.5.5,0,0,0-.08-.27.78.78,0,0,0-.24-.24,3.27,3.27,0,0,0-1.13-.39h0a4.78,4.78,0,0,1-1.07-.32,1.78,1.78,0,0,1-.76-.65,1.21,1.21,0,0,1-.19-.67,1.52,1.52,0,0,1,.66-1.21,2.42,2.42,0,0,1,1.42-.44,3.23,3.23,0,0,1,1.8.66.43.43,0,0,1,.12.59.41.41,0,0,1-.59.12,2.37,2.37,0,0,0-1.33-.52,1.53,1.53,0,0,0-.92.28.64.64,0,0,0-.31.52.41.41,0,0,0,0,.23,1,1,0,0,0,.23.21,2.87,2.87,0,0,0,1,.37h0a4.54,4.54,0,0,1,1.13.34,2,2,0,0,1,.83.69,1.36,1.36,0,0,1,.2.7,1.61,1.61,0,0,1-.71,1.28,2.57,2.57,0,0,1-1.53.47,3.57,3.57,0,0,1-2.11-.83A.44.44,0,0,1,252.34,190.84Z" style="fill:#263238"></path><path d="M261.39,189.86v2a.44.44,0,0,1-.43.44.46.46,0,0,1-.45-.44v-2a.84.84,0,1,0-1.68,0v2s0,0,0,.06v0s0,0,0,.05v0a.48.48,0,0,1-.41.27h-.08a.46.46,0,0,1-.36-.43v-2h0V188.6a.44.44,0,0,1,.44-.45.43.43,0,0,1,.4.25,1.7,1.7,0,0,1,.88-.25,1.71,1.71,0,0,1,1.3.57,1.66,1.66,0,0,1,1.29-.57,1.73,1.73,0,0,1,1.72,1.73v2a.44.44,0,0,1-.88,0v-2a.85.85,0,0,0-.84-.85A.86.86,0,0,0,261.39,189.86Z" style="fill:#263238"></path><path d="M266.7,187.12a.45.45,0,1,1-.89,0v-.18a.45.45,0,0,1,.89,0Zm0,1.49v3.22a.45.45,0,1,1-.89,0v-3.22a.45.45,0,1,1,.89,0Z" style="fill:#263238"></path><path d="M270,188.6a.47.47,0,0,1-.46.46h-.21v2.3a.45.45,0,0,1,.45.46.44.44,0,0,1-.45.46.93.93,0,0,1-.92-.92v-2.3h-.23a.46.46,0,0,1-.46-.46.45.45,0,0,1,.46-.45h.23V187a.46.46,0,0,1,.47-.45.45.45,0,0,1,.45.45v1.2h.21A.46.46,0,0,1,270,188.6Z" style="fill:#263238"></path><path d="M272.18,191.82a.46.46,0,0,1-.46.46.47.47,0,0,1-.44-.34.43.43,0,0,1,0-.12V187a.46.46,0,0,1,.92,0v1.44a1.87,1.87,0,0,1,.88-.24,1.81,1.81,0,0,1,1.8,1.81v1.86a.46.46,0,1,1-.91,0V190a.89.89,0,1,0-1.77,0Z" style="fill:#263238"></path><path d="M306.52,220.75a.64.64,0,0,1,0,1.28.64.64,0,0,1,0-1.28Z" style="fill:#c7c7c7"></path><path d="M308.48,220.75a.64.64,0,0,1,0,1.28.64.64,0,0,1,0-1.28Z" style="fill:#c7c7c7"></path><path d="M310.45,220.75a.64.64,0,0,1,0,1.28.64.64,0,0,1,0-1.28Z" style="fill:#c7c7c7"></path><path d="M248.13,222.42A167.9,167.9,0,0,0,268,221.34a204.31,204.31,0,0,0-39.77,0A167.82,167.82,0,0,0,248.13,222.42Z" style="fill:#455a64"></path><polygon points="228.25 231.89 238.79 231.73 249.34 231.64 270.42 231.57 291.51 231.64 302.05 231.73 312.59 231.89 302.05 232.05 291.51 232.14 270.42 232.21 249.34 232.13 238.79 232.05 228.25 231.89" style="fill:#c7c7c7"></polygon><polygon points="228.25 235.59 238.79 235.44 249.34 235.35 270.42 235.27 291.51 235.34 302.05 235.44 312.59 235.59 302.05 235.75 291.51 235.84 270.42 235.91 249.34 235.84 238.79 235.75 228.25 235.59" style="fill:#c7c7c7"></polygon><polygon points="228.25 228.19 238.79 228.03 249.34 227.94 270.42 227.87 291.51 227.94 302.05 228.03 312.59 228.19 302.05 228.34 291.51 228.43 270.42 228.51 249.34 228.43 238.79 228.34 228.25 228.19" style="fill:#c7c7c7"></polygon><polygon points="228.25 239.29 236.15 239.14 244.05 239.05 259.85 238.97 275.65 239.05 283.55 239.14 291.45 239.29 283.55 239.45 275.65 239.54 259.85 239.62 244.05 239.54 236.15 239.45 228.25 239.29" style="fill:#c7c7c7"></polygon><polygon points="217.33 409.06 217.25 383.85 217.2 358.65 217.16 308.23 217.2 257.82 217.25 232.61 217.33 207.4 217.41 232.61 217.46 257.82 217.5 308.23 217.46 358.65 217.41 383.85 217.33 409.06" style="fill:#dbdbdb"></polygon><polygon points="174.1 202.08 193.08 202 212.05 201.96 250 201.92 287.95 201.96 306.92 202 325.9 202.08 306.92 202.16 287.95 202.21 250 202.25 212.05 202.21 193.08 202.16 174.1 202.08" style="fill:#dbdbdb"></polygon><polygon points="221.76 254.83 234.78 254.73 247.8 254.67 273.83 254.62 299.86 254.67 312.88 254.73 325.9 254.83 312.88 254.93 299.86 254.99 273.83 255.03 247.8 254.99 234.78 254.93 221.76 254.83" style="fill:#dbdbdb"></polygon><path d="M248.13,273.07A167.9,167.9,0,0,0,268,272a204.31,204.31,0,0,0-39.77,0A167.82,167.82,0,0,0,248.13,273.07Z" style="fill:#455a64"></path><polygon points="228.25 282.54 238.79 282.38 249.34 282.3 270.42 282.22 291.51 282.29 302.05 282.38 312.59 282.54 302.05 282.7 291.51 282.79 270.42 282.86 249.34 282.79 238.79 282.7 228.25 282.54" style="fill:#c7c7c7"></polygon><polygon points="228.25 286.24 238.79 286.09 249.34 286 270.42 285.92 291.51 286 302.05 286.09 312.59 286.24 302.05 286.4 291.51 286.49 270.42 286.56 249.34 286.49 238.79 286.4 228.25 286.24" style="fill:#c7c7c7"></polygon><polygon points="228.25 278.84 238.79 278.68 249.34 278.59 270.42 278.52 291.51 278.59 302.05 278.68 312.59 278.84 302.05 279 291.51 279.08 270.42 279.16 249.34 279.08 238.79 279 228.25 278.84" style="fill:#c7c7c7"></polygon><polygon points="228.25 289.94 236.15 289.79 244.05 289.7 259.85 289.62 275.65 289.7 283.55 289.79 291.45 289.94 283.55 290.1 275.65 290.19 259.85 290.27 244.05 290.19 236.15 290.1 228.25 289.94" style="fill:#c7c7c7"></polygon><path d="M306.52,271.41a.64.64,0,0,1,.64.64.64.64,0,0,1-.64.63.63.63,0,0,1-.63-.63A.64.64,0,0,1,306.52,271.41Z" style="fill:#c7c7c7"></path><path d="M308.48,271.41a.64.64,0,0,1,.64.64.64.64,0,0,1-.64.63.63.63,0,0,1-.63-.63A.64.64,0,0,1,308.48,271.41Z" style="fill:#c7c7c7"></path><path d="M310.45,271.41a.64.64,0,0,1,.64.64.64.64,0,0,1-.64.63.63.63,0,0,1-.63-.63A.64.64,0,0,1,310.45,271.41Z" style="fill:#c7c7c7"></path><polygon points="221.76 305.48 234.78 305.38 247.8 305.32 273.83 305.28 299.86 305.32 312.88 305.38 325.9 305.48 312.88 305.58 299.86 305.64 273.83 305.68 247.8 305.64 234.78 305.58 221.76 305.48" style="fill:#dbdbdb"></polygon><path d="M248.13,323.72A167.9,167.9,0,0,0,268,322.64a204.31,204.31,0,0,0-39.77,0A167.82,167.82,0,0,0,248.13,323.72Z" style="fill:#455a64"></path><polygon points="228.25 333.19 238.79 333.04 249.34 332.95 270.42 332.87 291.51 332.95 302.05 333.04 312.59 333.19 302.05 333.35 291.51 333.44 270.42 333.51 249.34 333.44 238.79 333.35 228.25 333.19" style="fill:#c7c7c7"></polygon><polygon points="228.25 336.89 238.79 336.74 249.34 336.65 270.42 336.57 291.51 336.65 302.05 336.74 312.59 336.89 302.05 337.05 291.51 337.14 270.42 337.22 249.34 337.14 238.79 337.05 228.25 336.89" style="fill:#c7c7c7"></polygon><polygon points="228.25 329.49 238.79 329.33 249.34 329.25 270.42 329.17 291.51 329.24 302.05 329.33 312.59 329.49 302.05 329.65 291.51 329.74 270.42 329.81 249.34 329.74 238.79 329.65 228.25 329.49" style="fill:#c7c7c7"></polygon><polygon points="228.25 340.6 236.15 340.44 244.05 340.35 259.85 340.27 275.65 340.35 283.55 340.44 291.45 340.6 283.55 340.75 275.65 340.84 259.85 340.92 244.05 340.84 236.15 340.75 228.25 340.6" style="fill:#c7c7c7"></polygon><path d="M306.52,322.06a.64.64,0,0,1,.64.64.64.64,0,0,1-.64.63.63.63,0,0,1-.63-.63A.64.64,0,0,1,306.52,322.06Z" style="fill:#c7c7c7"></path><path d="M308.48,322.06a.64.64,0,0,1,.64.64.64.64,0,0,1-.64.63.63.63,0,0,1-.63-.63A.64.64,0,0,1,308.48,322.06Z" style="fill:#c7c7c7"></path><path d="M310.45,322.06a.64.64,0,0,1,.64.64.64.64,0,0,1-.64.63.63.63,0,0,1-.63-.63A.64.64,0,0,1,310.45,322.06Z" style="fill:#c7c7c7"></path><polygon points="221.76 356.13 234.78 356.03 247.8 355.98 273.83 355.93 299.86 355.97 312.88 356.03 325.9 356.13 312.88 356.23 299.86 356.29 273.83 356.34 247.8 356.29 234.78 356.23 221.76 356.13" style="fill:#dbdbdb"></polygon><path d="M248.13,374.37A167.9,167.9,0,0,0,268,373.29a204.31,204.31,0,0,0-39.77,0A167.82,167.82,0,0,0,248.13,374.37Z" style="fill:#455a64"></path><polygon points="228.25 383.84 238.79 383.69 249.34 383.6 270.42 383.52 291.51 383.6 302.05 383.69 312.59 383.84 302.05 384 291.51 384.09 270.42 384.17 249.34 384.09 238.79 384 228.25 383.84" style="fill:#c7c7c7"></polygon><polygon points="228.25 387.55 238.79 387.39 249.34 387.3 270.42 387.23 291.51 387.3 302.05 387.39 312.59 387.55 302.05 387.7 291.51 387.79 270.42 387.87 249.34 387.79 238.79 387.7 228.25 387.55" style="fill:#c7c7c7"></polygon><polygon points="228.25 380.14 238.79 379.99 249.34 379.9 270.42 379.82 291.51 379.89 302.05 379.99 312.59 380.14 302.05 380.3 291.51 380.39 270.42 380.46 249.34 380.39 238.79 380.3 228.25 380.14" style="fill:#c7c7c7"></polygon><polygon points="228.25 391.25 236.15 391.09 244.05 391 259.85 390.93 275.65 391 283.55 391.09 291.45 391.25 283.55 391.4 275.65 391.5 259.85 391.57 244.05 391.49 236.15 391.4 228.25 391.25" style="fill:#c7c7c7"></polygon><path d="M306.52,372.71a.64.64,0,0,1,.64.64.64.64,0,0,1-.64.63.63.63,0,0,1-.63-.63A.64.64,0,0,1,306.52,372.71Z" style="fill:#c7c7c7"></path><path d="M308.48,372.71a.64.64,0,0,1,.64.64.64.64,0,0,1-.64.63.63.63,0,0,1-.63-.63A.64.64,0,0,1,308.48,372.71Z" style="fill:#c7c7c7"></path><path d="M310.45,372.71a.64.64,0,0,1,.64.64.64.64,0,0,1-.64.63.63.63,0,0,1-.63-.63A.64.64,0,0,1,310.45,372.71Z" style="fill:#c7c7c7"></path><polygon points="221.76 406.78 234.78 406.68 247.8 406.63 273.83 406.58 299.86 406.63 312.88 406.68 325.9 406.78 312.88 406.88 299.86 406.94 273.83 406.99 247.8 406.94 234.78 406.88 221.76 406.78" style="fill:#dbdbdb"></polygon><polygon points="174.1 415.04 193.08 414.95 212.05 414.91 250 414.87 287.95 414.91 306.92 414.95 325.9 415.04 306.92 415.12 287.95 415.16 250 415.2 212.05 415.16 193.08 415.12 174.1 415.04" style="fill:#dbdbdb"></polygon><path d="M175.34,249.74c2.72-.2,5.45-.3,8.17-.38s5.45-.1,8.18-.12,5.44,0,8.17.12l4.09.14c1.36.08,2.72.13,4.08.24-1.36.12-2.72.17-4.08.25l-4.09.14c-2.73.09-5.45.1-8.17.11s-5.45,0-8.18-.11S178.06,250,175.34,249.74Z" style="fill:#263238"></path><circle cx="191.69" cy="229.1" r="14.72" style="fill:#7E57C2"></circle><path d="M200.24,223.07c-.73.56-1.45,1.16-2.19,1.74l-2.16,1.78-2.41,2h0c-.6.5-1.2,1-1.79,1.53l-1.8-1.53h0c-.79-.69-1.6-1.36-2.4-2l-2.17-1.78c-.72-.58-1.44-1.18-2.18-1.74Z" style="fill:#fff"></path><path d="M184.27,232.88c-.53.41-1.14.89-1.65,1.33V223.68c.7.65,1.4,1.28,2.09,1.94l2.12,1.9c.73.66,1.47,1.31,2.22,2l.07.06.06.05-.13.08c-.49.27-1,.57-1.41.86s-1.15.76-1.72,1.15S184.81,232.47,184.27,232.88Z" style="fill:#fff"></path><path d="M200.75,223.68v10.5c-.51-.44-1.11-.89-1.63-1.3s-1.11-.82-1.67-1.2-1.12-.79-1.71-1.15-.92-.59-1.4-.86l-.13-.08a.21.21,0,0,1,.07-.05s0,0,.06-.06l2.22-2,2.1-1.9C199.37,225,200.07,224.33,200.75,223.68Z" style="fill:#fff"></path><path d="M198.69,234c.57.37,1.25.79,1.86,1.11v.35H182.81v-.3l1.88-1.16c.61-.37,1.18-.78,1.76-1.18s1.16-.83,1.74-1.25.91-.72,1.36-1.1l.11-.09c.63.56,1.29,1.12,1.92,1.69l.11.09.09-.09,1.95-1.69.11.09c.44.38.88.75,1.35,1.1s1.13.84,1.72,1.25S198.08,233.63,198.69,234Z" style="fill:#fff"></path><path d="M175.34,351.35c2.72-.21,5.45-.31,8.17-.39s5.45-.1,8.18-.11,5.44,0,8.17.11l4.09.14c1.36.08,2.72.13,4.08.25-1.36.11-2.72.16-4.08.24l-4.09.14c-2.73.09-5.45.11-8.17.12s-5.45,0-8.18-.12S178.06,351.55,175.34,351.35Z" style="fill:#263238"></path><circle cx="191.69" cy="330.7" r="14.72" transform="translate(-174.37 440.73) rotate(-76.63)" style="fill:#7E57C2"></circle><path d="M200.41,338.26H183V323.14h17.45Zm-16.31-1.13h15.17V324.27H184.1Z" style="fill:#fff"></path><polygon points="183.53 337.7 188.26 333.16 192.56 337.7 183.53 337.7" style="fill:#fff"></polygon><polygon points="189.61 337.7 195.23 330.59 199.84 337.7 189.61 337.7" style="fill:#fff"></polygon><path d="M189.72,330.17A1.68,1.68,0,1,1,188,328.5,1.68,1.68,0,0,1,189.72,330.17Z" style="fill:#fff"></path><path d="M175.34,402.15c2.72-.21,5.45-.3,8.17-.38s5.45-.11,8.18-.12,5.44,0,8.17.11l4.09.14c1.36.09,2.72.14,4.08.25-1.36.11-2.72.16-4.08.24l-4.09.14c-2.73.09-5.45.11-8.17.12s-5.45,0-8.18-.12S178.06,402.36,175.34,402.15Z" style="fill:#263238"></path><circle cx="191.69" cy="381.5" r="14.72" style="fill:#7E57C2"></circle><path d="M199.54,381c0,3.76-3.51,6.81-7.85,6.81s-7.86-3.05-7.86-6.81,3.52-6.81,7.86-6.81S199.54,377.24,199.54,381Z" style="fill:#fff"></path><polygon points="185.99 384.86 184.58 388.81 189.58 387.26 185.99 384.86" style="fill:#fff"></polygon><path d="M175.34,300.55c2.72-.21,5.45-.31,8.17-.39s5.45-.1,8.18-.11,5.44,0,8.17.11l4.09.14c1.36.08,2.72.13,4.08.25-1.36.11-2.72.16-4.08.24l-4.09.14c-2.73.09-5.45.1-8.17.11s-5.45,0-8.18-.11S178.06,300.75,175.34,300.55Z" style="fill:#263238"></path><circle cx="191.69" cy="279.9" r="14.72" transform="translate(-124.95 401.68) rotate(-76.63)" style="fill:#7E57C2"></circle><path d="M197.42,276.71c-.28-2.87-2.26-5.72-5.74-5.72s-5.44,2.85-5.73,5.72c-.44,4.43,2.55,8.44,5.73,12.1C194.87,285.15,197.86,281.14,197.42,276.71Zm-5.74,3.19a3.14,3.14,0,1,1,3.15-3.14A3.15,3.15,0,0,1,191.68,279.9Z" style="fill:#fff"></path></g><g id="freepik--character-2--inject-17"><path d="M272.91,160.49a23.67,23.67,0,0,1-18.78,17.62l-.18,0h-.09a23.11,23.11,0,0,1-9.45-.36,19.9,19.9,0,0,1-2.95-.95,3,3,0,0,1-.49-.21,2.91,2.91,0,0,1-.43-.19,16.14,16.14,0,0,1-2.93-1.49,23.57,23.57,0,1,1,35.3-14.45Z" style="fill:#7E57C2"></path><path d="M254.71,167.11l-.09.33c0,.09-.06.25-.09.37s-.12.52-.21.82c-.09.46-.22,1-.31,1.56a4.63,4.63,0,0,0-.12.7c-.06.42-.15.85-.21,1.31a12.47,12.47,0,0,0-.12,1.52,11,11,0,0,0-.07,1.5,3.25,3.25,0,0,0,.1.85v.15c.06.43.18,1.1.27,1.92a23.11,23.11,0,0,1-9.45-.36,19.9,19.9,0,0,1-2.95-.95,3,3,0,0,1-.49-.21,2.91,2.91,0,0,1-.43-.19c0-1,.37-3.26.58-6,.12-1.37.21-2.86.27-4.33,0-.33,0-.61,0-.94V164c0-.09.07-.12.16-.12a1.93,1.93,0,0,1,.79.24,5.36,5.36,0,0,1,.52.24l.82.19,1.92.45,8.57,2,.27.06Z" style="fill:#d3766a"></path><path d="M253.58,176.08s0,.09,0,.14a8.24,8.24,0,0,1-1.36.09c-8.92-.13-10.13-11.47-10.13-11.47l3.53.13,9.06,2.12a33.69,33.69,0,0,0-1.22,8.12A4.72,4.72,0,0,0,253.58,176.08Z" style="fill:#263238"></path><path d="M239.09,149.92c-1.15,4.78,2.15,18.18,5.67,21,5.09,4.09,13,4,16.41-2,3.26-5.85-1.34-23.24-5.23-25.76C250.21,139.44,240.79,142.87,239.09,149.92Z" style="fill:#d3766a"></path><path d="M252,158.53s-.06.06-.05.1c.25.89.38,2-.37,2.46,0,0,0,.06,0,0C252.59,160.76,252.4,159.34,252,158.53Z" style="fill:#263238"></path><path d="M251,157.78c-1.48.24-.9,3.18.48,3S252.23,157.58,251,157.78Z" style="fill:#263238"></path><path d="M257.49,157.23s.08,0,.09.06c.15.92.48,2,1.36,2.08,0,0,0,0,0,.06C257.91,159.49,257.49,158.12,257.49,157.23Z" style="fill:#263238"></path><path d="M258.11,156.11c1.45-.4,2.15,2.52.81,2.89S256.9,156.45,258.11,156.11Z" style="fill:#263238"></path><path d="M249.56,156.67a11.37,11.37,0,0,0,1.06-.63c.4-.25.75-.4.95-.85a.61.61,0,0,0-.25-.73,1.56,1.56,0,0,0-1.58.15,2.32,2.32,0,0,0-1.11,1.24A.68.68,0,0,0,249.56,156.67Z" style="fill:#263238"></path><path d="M259,154.41c-.42,0-.82,0-1.23-.07a2,2,0,0,1-1.24-.32.62.62,0,0,1-.12-.76,1.58,1.58,0,0,1,1.48-.6,2.35,2.35,0,0,1,1.56.59A.68.68,0,0,1,259,154.41Z" style="fill:#263238"></path><path d="M252.78,166.78c.26.17.54.42.87.38a2.35,2.35,0,0,0,.94-.42s.06,0,0,0a1.26,1.26,0,0,1-1.06.72,1,1,0,0,1-.88-.66C252.68,166.79,252.74,166.76,252.78,166.78Z" style="fill:#263238"></path><path d="M253.19,163.86a3.2,3.2,0,0,0,2.35,1,4,4,0,0,0,1.13-.17l.21-.07.19-.07a.24.24,0,0,0,.14-.24h0a.32.32,0,0,0,0-.09h0l0-.08c-.12-.7-.4-1.75-.4-1.75.28.07,1.71.4,1.61,0a47.33,47.33,0,0,0-3.07-9.15c-.05-.1-.2,0-.17.05.65,2.91,1.8,5.69,2.49,8.61a5.42,5.42,0,0,0-1.56-.15c-.09,0,.58,2,.61,2.34a0,0,0,0,1,0,0,4.39,4.39,0,0,1-3.41-.36C253.18,163.72,253.12,163.8,253.19,163.86Z" style="fill:#263238"></path><path d="M256.18,164.38a3.7,3.7,0,0,1-1.24,1.44,1.62,1.62,0,0,1-1,.26c-.76,0-.91-.71-.9-1.3a4,4,0,0,1,.16-.94A4.83,4.83,0,0,0,256.18,164.38Z" style="fill:#263238"></path><path d="M254.94,165.82a1.62,1.62,0,0,1-1,.26c-.76,0-.91-.71-.9-1.3A1.74,1.74,0,0,1,254.94,165.82Z" style="fill:#ff98b9"></path><path d="M240.37,161.6s-4.79-7.56-4.45-12c.15-2,2.85-3.41,2.85-3.41a4.52,4.52,0,0,1,1.33-4.58c2.32-2.27,8.06-1.89,8.06-1.89s3.6-5.45,8.9-3.43,2,8,2,8,2,2.7-2.68,4.94-14,.33-14,.33a32.58,32.58,0,0,1,.06,9.71A3,3,0,0,1,240.37,161.6Z" style="fill:#263238"></path><path d="M249.06,139.78a9.16,9.16,0,0,0-3.71-.6,9.87,9.87,0,0,0-3.31.59,5.51,5.51,0,0,0-3.8,4.23,3.84,3.84,0,0,0,.79,2.89s.08,0,.05,0c-1.25-1.47-.66-3.83.57-5.11a8.35,8.35,0,0,1,5.5-2.17,16.29,16.29,0,0,1,3.88.33A.06.06,0,1,0,249.06,139.78Z" style="fill:#263238"></path><path d="M260.87,138.76a4.53,4.53,0,0,0-3.18-2.81,7.71,7.71,0,0,0-5,.28,9.74,9.74,0,0,0-4,3.1s0,.07.05,0a8.51,8.51,0,0,1,8.06-3.19,4.66,4.66,0,0,1,3.41,2.23,4.59,4.59,0,0,1,0,3.9,8.67,8.67,0,0,1-3.31,3.46s0,.07,0,0a9,9,0,0,0,3.31-2.94A5,5,0,0,0,260.87,138.76Z" style="fill:#263238"></path><path d="M257.52,149.5a16,16,0,0,1-6.58,1.29,32.78,32.78,0,0,1-7-.81c-1.33-.29-2.65-.63-4-1,0,0-.06.05,0,.06a35.15,35.15,0,0,0,7.17,2.05,17.61,17.61,0,0,0,6.86-.21,15.22,15.22,0,0,0,3.55-1.33S257.55,149.49,257.52,149.5Z" style="fill:#263238"></path><path d="M242.65,160.79s-3.41-4.13-5.3-2.88.91,7.41,3.31,8.09a2.37,2.37,0,0,0,3.07-1.53Z" style="fill:#d3766a"></path><path d="M238.2,159.66s0,.05,0,.06a6,6,0,0,1,3.4,3.5,1.32,1.32,0,0,0-2-.2s0,.1.05.08a1.48,1.48,0,0,1,1.65.38,7.67,7.67,0,0,1,.87,1.24c.09.14.34,0,.28-.12l0,0C242.3,162.47,240.45,159.69,238.2,159.66Z" style="fill:#263238"></path></g><g id="freepik--character-1--inject-17"><path d="M195.21,450.89c-2.24.73-66.26-.11-68.67-1.69-.93-.58-1.35-9.92-1.54-21.21v-.35c0-2.33-.08-4.73-.08-7.16,0-.33,0-.67,0-1l3.1-33.21,42.83.43-4.23,32.9-.05,1.3-.26,6.81,0,.7s24.36,11.28,26.83,13.3S197.46,450.18,195.21,450.89Z" style="fill:#d3766a"></path><path d="M195.21,450.89c-2.24.73-66.26-.11-68.67-1.69-.93-.58-1.35-9.92-1.54-21.21v-.35c0-2.33-.08-4.73-.08-7.16,0-.33,0-.67,0-1l41.7.12-.05,1.3-.26,6.81,0,.7s24.36,11.28,26.83,13.3S197.46,450.18,195.21,450.89Z" style="fill:#ebebeb"></path><path d="M195.22,450.89c-1.16.37-18.55.33-35.55,0-3.42-.07-6.81-.15-10-.24-12.13-.33-22.15-.83-23.08-1.44s-1.34-9.65-1.52-20.74c0-.16,0-.31,0-.47s0-.24,0-.36h0l41.25.08,0,.7s24.37,11.27,26.83,13.29S197.46,450.17,195.22,450.89Z" style="fill:#7E57C2"></path><path d="M194.52,448.4c-10.79-.41-54.33-1-65-.6-.09,0-.09.06,0,.07,10.68.63,54.24.89,65,.71C194.75,448.57,194.75,448.41,194.52,448.4Z" style="fill:#263238"></path><path d="M170.9,427.89c-4.24-.85-9.44-.26-12.72,2.72-.13.11,0,.29.17.25a60.55,60.55,0,0,1,12.52-2.44A.27.27,0,0,0,170.9,427.89Z" style="fill:#263238"></path><path d="M173.94,429.78c-4.24-.85-9.44-.27-12.72,2.72-.13.11,0,.29.17.25a59.87,59.87,0,0,1,12.53-2.44A.27.27,0,0,0,173.94,429.78Z" style="fill:#263238"></path><path d="M177,431.66c-4.24-.85-9.44-.26-12.72,2.72-.13.12,0,.3.18.26A59.14,59.14,0,0,1,177,432.2.27.27,0,0,0,177,431.66Z" style="fill:#263238"></path><path d="M159.67,450.88c-3.42-.07-6.81-.15-10-.24-12.13-.33-22.15-.83-23.08-1.44s-1.34-9.65-1.52-20.74c0-.16,0-.31,0-.47s0-.24,0-.36h0C130.7,431.59,150.61,444.85,159.67,450.88Z" style="fill:#263238"></path><path d="M169.11,427.85H123s9.28-107.68,8.92-109.56c-.46-2.41-3.18-13.31-6.81-27.54-1.13-4.46-2.36-9.24-3.63-14.19-3.44-13.4-7.23-28-10.53-40.78-4.95-19.09-8.82-33.91-8.82-33.91h39.07s4.56,14.43,10.3,33.21c9.35,30.53,21.84,72.54,23.08,82.75C176.58,334.32,169.11,427.85,169.11,427.85Z" style="fill:#37474f"></path><path d="M167.07,420c-7-.15-5-.21-12.06-.27-3.45,0-26.09-.23-29.31.3a.07.07,0,0,0,0,.14c3.22.53,25.86.34,29.31.3,7-.06,5-.12,12.06-.27A.1.1,0,0,0,167.07,420Z" style="fill:#263238"></path><path d="M140.6,311.71c-1.51-6.66-3.77-13.19-5.73-19.74q-6-19.94-12.06-39.85-3-10-6.08-19.91c-1-3.35-2.06-6.7-3.11-10.05s-2.2-6.51-3.12-9.81c-.38-1.35-.58-.61-.1,1.1,1,3.44,1.93,6.88,2.93,10.31q3,10.19,6,20.37c4,13.5,8,27,12.09,40.49q3,10.14,6.1,20.29a81,81,0,0,1,2.5,9.81,45.54,45.54,0,0,1,.4,10.5c-.44,7-1.25,14.1-1.91,21.13l-1.95,21.16q-2,21-3.87,42.11c-.16,1.78-.31,3.55-.45,5.34-.05.59.38.66.44.09,1.52-13.88,3.16-27.92,4.46-41.82s2.6-27.66,3.89-41.49c.32-3.47.69-6.95.7-10.44A43,43,0,0,0,140.6,311.71Z" style="fill:#263238"></path><path d="M136.78,201.87c-2.72,21-7.89,60.33-11.66,88.88-8.81-34.59-23-88.88-23-88.88Z" style="fill:#263238"></path><path d="M146.37,451.51c-2.24.73-66.26.13-68.68-1.44-.93-.58-1.39-9.91-1.61-21.21,0-.11,0-.23,0-.35,0-2.33-.09-4.72-.1-7.15,0-.34,0-.67,0-1-.15-16.29,1-33.21,1-33.21l41.84.28-1.16,32.9,0,1.3-.23,6.81,0,.7s24.4,11.19,26.88,13.2S148.62,450.78,146.37,451.51Z" style="fill:#d3766a"></path><path d="M146.37,451.51c-2.24.73-66.26.13-68.68-1.44-.93-.58-1.39-9.91-1.61-21.21,0-.11,0-.23,0-.35,0-2.33-.09-4.72-.1-7.15,0-.34,0-.67,0-1l41.71,0,0,1.3-.23,6.81,0,.7s24.4,11.19,26.88,13.2S148.62,450.78,146.37,451.51Z" style="fill:#ebebeb"></path><path d="M146.37,451.51c-2.24.73-66.26.13-68.68-1.44-.93-.58-1.39-9.91-1.61-21.21,0-.11,0-.23,0-.35l41.31-.08,0,.7s24.4,11.19,26.88,13.2S148.62,450.78,146.37,451.51Z" style="fill:#7E57C2"></path><path d="M145.67,449c-10.79-.37-54.34-.82-65-.36-.09,0-.09.06,0,.06,10.69.6,54.24.7,65,.47C145.9,449.19,145.9,449,145.67,449Z" style="fill:#263238"></path><path d="M122,428.59c-4.23-.83-9.43-.22-12.71,2.77-.12.12,0,.3.18.25A59.75,59.75,0,0,1,122,429.13.27.27,0,0,0,122,428.59Z" style="fill:#263238"></path><path d="M125,430.47c-4.24-.83-9.44-.23-12.71,2.77-.13.11,0,.29.18.25A59.75,59.75,0,0,1,125,431,.27.27,0,0,0,125,430.47Z" style="fill:#263238"></path><path d="M128.07,432.35c-4.24-.84-9.44-.23-12.71,2.76-.13.12,0,.3.18.25a59.75,59.75,0,0,1,12.51-2.48A.27.27,0,0,0,128.07,432.35Z" style="fill:#263238"></path><path d="M140,201.87s-.9,18.69-5.18,33.5c-.34,1.22-.72,2.43-1.12,3.58a70.09,70.09,0,0,0-11.26,5.79s-.45,15-.9,31.82c-.5,18.75-1,39.67-.91,44.1.39,16.6-2.08,107.87-2.08,107.87l-46.09.19s8.33-101.93,8.27-108c-.08-9.77,2.24-53,4-84.47,1.1-19.41,2-34.37,2-34.37Z" style="fill:#37474f"></path><path d="M116.92,420.33c-7-.12-5-.18-12.06-.22-3.44,0-26.09-.12-29.31.43a.07.07,0,0,0,0,.14c3.23.52,25.87.23,29.32.18,7-.1,5-.15,12.06-.33A.1.1,0,1,0,116.92,420.33Z" style="fill:#263238"></path><path d="M90.58,208.55c-.85,25.71-1.75,51.43-2.9,77.14s-7.21,118.12-8.76,132.46c0,.1.14.13.15,0,3.36-25.51,5.23-63.27,6.88-88.94s2.77-51.38,3.64-77.08c.5-14.54.88-29.09,1.31-43.63C90.91,208.32,90.59,208.34,90.58,208.55Z" style="fill:#263238"></path><path d="M135.57,237.84a85.19,85.19,0,0,0-13.18,6.9c-.16.1,0,.36.14.27,4.45-2.16,9-4.24,13.31-6.64A.3.3,0,0,0,135.57,237.84Z" style="fill:#263238"></path><path d="M135.83,222c-.31,1.64-.7,3.26-1.06,4.89s-.57,3.08-1,4.59a7.79,7.79,0,0,1-2.14,3.86c-.6.55-1.26,1.05-1.9,1.56-.34.27-.71.54-1.07.81l.12-.65c.11-.63.21-1.25.32-1.87q.34-2.07.66-4.14c.42-2.72.8-5.47,1.37-8.16a.09.09,0,0,0-.17,0c-.68,2.66-1.43,5.3-2,8-.29,1.32-1.32,7.83-1.36,8.29s-.09,1-.11,1.44a5.94,5.94,0,0,0,0,1.46.12.12,0,0,0,.22,0h0a5.2,5.2,0,0,0,.41-1.41c.12-.47.23-.94.31-1.41,0-.17.06-.35.08-.52.64-.39,1.24-.91,1.84-1.34s1.3-.93,1.91-1.44a7.25,7.25,0,0,0,2.34-3.65,25.64,25.64,0,0,0,.77-4.69c.21-1.85.36-3.71.62-5.55C136,221.91,135.85,221.87,135.83,222Z" style="fill:#263238"></path><path d="M114.69,151.88c7.34,10,30.25,26.76,39.83,26.39,6.92-.26,28.45-22.42,34.24-29.68,5.59-7-17.15-20.38-20.56-16.36-5.51,6.5-15.93,21.59-17.06,21.82-1.87.36-13.33-3.13-30.75-9.87C109.74,140.06,110.3,145.94,114.69,151.88Z" style="fill:#d3766a"></path><path d="M193.61,139.39c-1.5,5.09-8.63,14.28-11.2,15.84s-18.61-10-18.71-13.13,6.27-19.8,10.7-22.89S195.16,134.13,193.61,139.39Z" style="fill:#d3766a"></path><path d="M170.73,125.89c1.65,2.27,5,6.1,5.21,5.89-.16.23-3,4.37-.9,6.7s4.94-1.16,5.11-1.39c-.08.27-1.18,3.88.81,5.29,3.42,2.43,6.48-6.71,9.58-8.1,0,0,3,5,3.07,5.11s3.08-8.64,1-12.72a2.94,2.94,0,0,0-3.34-1.54s1.31-2.67-.28-4.57c-.82-1-3.09-.52-3.09-.52s6.27-14.73,1.92-15.73S180,119.55,180,119.55s4.39-16.34,0-17.29C175.38,101.26,169.9,124.75,170.73,125.89Z" style="fill:#d3766a"></path><path d="M187.92,120c.05,0,0-.11-.06-.09a24.42,24.42,0,0,0-12.13,11.88c-.09.19,0,.44.14.23C177.73,128.49,183.82,122.59,187.92,120Z" style="fill:#263238"></path><path d="M180.12,137.53c2.49-5.14,6.37-9,10.93-12.32.06,0,0-.12-.07-.1-2.67,1-5.36,3.47-7.28,5.55a15,15,0,0,0-3.76,6.78C179.91,137.54,180.07,137.64,180.12,137.53Z" style="fill:#263238"></path><path d="M190.54,134.28a6,6,0,0,0-1.65,1.69c-.47.63-.92,1.3-1.36,2a26.24,26.24,0,0,1-2.95,3.83,4.5,4.5,0,0,1-2.19,1.34,2.47,2.47,0,0,1-2.46-1.13,4.57,4.57,0,0,1-.61-2.54c0-.25,0-.5.05-.75a5.09,5.09,0,0,1-1.41,1,2.8,2.8,0,0,1-1.88.18,3.15,3.15,0,0,1-1.55-1,4.09,4.09,0,0,1-.78-3.4,14.56,14.56,0,0,1,2.9-5.46l0,.84a14.15,14.15,0,0,0-2,4.74,3.32,3.32,0,0,0,.61,2.68,1.92,1.92,0,0,0,2.35.57,5.93,5.93,0,0,0,2.2-1.92l1.61-2.2-.8,2.59a8.76,8.76,0,0,0-.39,2.23,3.49,3.49,0,0,0,.44,2,1.7,1.7,0,0,0,1.62.83,3.79,3.79,0,0,0,1.87-1.06,30.73,30.73,0,0,0,3.08-3.59c.49-.62,1-1.25,1.51-1.86A5.66,5.66,0,0,1,190.54,134.28Z" style="fill:#263238"></path><path d="M164.29,139.06s-2.65-22.31,6.58-19.07c2.74,1,12.86,8.19,11.45,10.25-1.83,2.65-6.61.43-9.39-1.45,0,0,2,7.47-2.82,10.39A5.56,5.56,0,0,1,164.29,139.06Z" style="fill:#d3766a"></path><path d="M170.09,119.76a11.91,11.91,0,0,1,3.19,1.23,25.07,25.07,0,0,1,2.93,1.81,39.54,39.54,0,0,1,5.31,4.39,6.58,6.58,0,0,1,1.1,1.46,2.33,2.33,0,0,1,.29,1,1.74,1.74,0,0,1-.06.58,1.85,1.85,0,0,1-.24.51,2.93,2.93,0,0,1-1.66,1.13,5.44,5.44,0,0,1-1.88.1,10.54,10.54,0,0,1-3.38-1.08,24.23,24.23,0,0,1-3-1.77l.61-.44a13.81,13.81,0,0,1,.33,2.62,13.42,13.42,0,0,1-.16,2.61,9,9,0,0,1-.82,2.48,6.83,6.83,0,0,1-1.57,2,7.65,7.65,0,0,0,1.32-2.16,9.25,9.25,0,0,0,.57-2.43,13.38,13.38,0,0,0-.44-4.94l-.28-1,.89.54a23.85,23.85,0,0,0,2.93,1.61,10.12,10.12,0,0,0,3.1,1,2.82,2.82,0,0,0,2.64-.82c.48-.6-.24-1.62-1-2.4a33.55,33.55,0,0,0-2.42-2.34c-.85-.75-1.7-1.5-2.59-2.19A21.84,21.84,0,0,0,170.09,119.76Z" style="fill:#263238"></path><path d="M145.4,152.43,140,176.28s-13.74-11.06-22.61-20.14S106.41,139.22,119,143,145.4,152.43,145.4,152.43Z" style="fill:#7E57C2"></path><path d="M129.59,146.53l-4.19,17.3.79.71,4.28-17.7Zm4.44,1.58-4.66,19.25.79.69,4.74-19.62Zm4.42,1.64-5.1,21,.79.67,5.18-21.38Zm4.41,1.68-5.5,22.72.79.66,5.58-23Z" style="fill:#030402;opacity:0.1"></path><path d="M140.4,152.08c-.53,1.68-.87,3.43-1.25,5.14s-.73,3.38-1.07,5.07c-.71,3.42-1.44,6.84-1.88,10.31a.07.07,0,0,0,.14,0c1-3.37,1.64-6.79,2.33-10.22q.53-2.53,1-5.08c.33-1.73.7-3.47.88-5.22A.08.08,0,0,0,140.4,152.08Z" style="fill:#263238"></path><path d="M142.39,165.62,140,176.28s-13.75-11.05-22.62-20.13c-7.06-7.23-9.8-13.67-4.3-14.08Z" style="opacity:0.1"></path><path d="M81.9,229.64c.17.17,67.71-4.46,68.28-5.19.79-1-20.59-69.67-25.95-79.76-2.28-4.3-13.2-4.91-17.52-.85C95.9,154,88.38,186.87,86.8,196.73,84.17,213,81.3,229.05,81.9,229.64Z" style="fill:#7E57C2"></path><path d="M124.32,144.83l-19.78,1.4c.28-.34.55-.67.83-1l18.35-1.3a4,4,0,0,1,.52.75A1,1,0,0,0,124.32,144.83Zm1.62,3.65-24.08,1.7c-.2.32-.39.65-.57,1l25-1.77C126.18,149.07,126.06,148.77,125.94,148.48Zm1.77,4.56-28.47,2-.45,1L128.05,154C127.94,153.65,127.82,153.34,127.71,153Zm1.67,4.58L97.09,159.9l-.39,1,33-2.34C129.6,158.22,129.49,157.92,129.38,157.62ZM131,162.2l-35.76,2.53c-.12.32-.23.64-.34,1l36.42-2.58C131.2,162.8,131.1,162.5,131,162.2Zm1.57,4.58-39,2.76c-.11.31-.21.63-.31,1l39.6-2.81C132.77,167.39,132.67,167.08,132.56,166.78Zm1.54,4.59-42,3c-.1.32-.19.63-.28.95l42.6-3C134.31,172,134.21,171.67,134.1,171.37Zm1.52,4.58-44.88,3.18c-.09.32-.18.64-.26,1l45.45-3.21C135.83,176.56,135.73,176.26,135.62,176Zm1.5,4.59L89.5,183.91c-.08.32-.15.64-.23,1l48.15-3.41Zm1.49,4.59-50.23,3.55c-.07.32-.14.64-.2.95L138.9,186C138.8,185.74,138.7,185.43,138.61,185.13Zm1.47,4.59-52.69,3.73c-.07.33-.13.64-.18.94l53.15-3.76C140.26,190.33,140.17,190,140.08,189.72Zm1.44,4.6-55,3.89-.15.93,55.4-3.92C141.71,194.92,141.62,194.62,141.52,194.32Zm1.44,4.59L85.78,203l-.15.93,57.6-4.08Q143.09,199.38,143,198.91Zm1.41,4.59L85,207.7c0,.31-.1.63-.16.94l59.81-4.23C144.56,204.11,144.46,203.81,144.37,203.5Zm1.39,4.6-61.55,4.35-.15.94L146,209C146,208.7,145.86,208.4,145.76,208.1Zm1.37,4.59L83.44,217.2l-.15.94,64.11-4.54Zm1.33,4.6L82.69,222c0,.32-.09.63-.14.93l66.17-4.68C148.63,217.91,148.55,217.61,148.46,217.29Zm1.24,4.61L82,226.69c0,.34-.07.65-.1.93l68-4.81C149.87,222.54,149.79,222.24,149.7,221.9Z" style="fill:#030402;opacity:0.1"></path><path d="M96.2,152.21c-9.09,8.73-33.36,39.95-29.93,50.09,3,9,21.61,24.6,29.69,31.9,2.94,2.66,24.27-20.86,21.52-22.87-4.11-3-22.35-19.65-22.6-21s5.44-16.59,12.3-35.09C113.64,137.81,101.88,146.74,96.2,152.21Z" style="fill:#d3766a"></path><path d="M115.39,209.82s9.79,7.05,16,12c3.45,2.74,8.94,8,10.55,11.14,2.42,4.74,9.48,26.13,4.33,28-4.66,1.65-8.39-17.49-8.39-17.49s5.47,19-.51,19.94S130,242.08,130,242.08s5.18,19.63-1.14,19.64c-4.77,0-7.12-20-7.12-20s4.34,16.91-.57,17.13c-5.42.24-8.75-18.11-8.75-18.11-12.58-1.54-18.28-6.93-21.25-12.06C90.51,227.47,115.39,209.82,115.39,209.82Z" style="fill:#d3766a"></path><path d="M136.6,237.6c5.1,13.67,3.41,21.94,3.41,21.71,0-5.4-1.74-13.53-2.27-15.8s-.7-3.64-1.22-5.9C136.5,237.56,136.58,237.54,136.6,237.6Z" style="fill:#263238"></path><path d="M128.17,238.44a49.89,49.89,0,0,1,3.91,17.15c0,.22-.1.17-.14-.06-.59-2.89-3.12-14.22-3.84-17.08C128.09,238.41,128.15,238.4,128.17,238.44Z" style="fill:#263238"></path><path d="M120.85,238.67A36.87,36.87,0,0,1,123.49,252c0,.22-.14.13-.18-.1-.79-4.46-1.38-8-2.61-13.22C120.68,238.64,120.82,238.58,120.85,238.67Z" style="fill:#263238"></path><path d="M98.9,179.59l-23.76-5.84s11.28-13.56,20.51-22.28,17.1-10.64,13.08,1.84S98.9,179.59,98.9,179.59Z" style="fill:#7E57C2"></path><path d="M105.18,163.54l-17.42-4.06-.73.78,17.82,4.16C105,164.14,105.06,163.84,105.18,163.54ZM103.53,168l-19.41-4.52-.7.78,19.77,4.62C103.3,168.55,103.41,168.26,103.53,168Zm-1.72,4.42-21.23-4.95-.69.77,21.58,5Zm-1.75,4.39-22.94-5.35c-.25.28-.48.55-.68.79l23.26,5.42C99.8,177.38,99.93,177.08,100.06,176.77Z" style="fill:#030402;opacity:0.1"></path><path d="M99.54,175.11c-1.65-.61-3.38-1-5.08-1.5s-3.34-.89-5-1.31c-3.39-.87-6.76-1.76-10.21-2.37a.07.07,0,0,0,0,.14c3.31,1.12,6.7,2,10.09,2.82,1.67.42,3.35.84,5,1.24s3.44.86,5.18,1.12A.07.07,0,0,0,99.54,175.11Z" style="fill:#263238"></path><path d="M106,161.35c-.4,1.59-.88,3.15-1.39,4.7s-1,3.09-1.62,4.62-1.18,3.05-1.83,4.54a47.33,47.33,0,0,1-2.18,4.4l0,0h0l-.62-.17.65.06-.07,0c.6-1.52,1.17-3,1.71-4.58l1.72-4.57c.58-1.52,1.16-3,1.78-4.55S105.29,162.84,106,161.35Z" style="fill:#263238"></path><path d="M105.9,164.67a5.9,5.9,0,0,1-.9,2.07,5.09,5.09,0,0,1-1.62,1.58c.19-.33.4-.63.6-.94l.6-.92C105,165.86,105.4,165.26,105.9,164.67Z" style="fill:#263238"></path><path d="M122.11,153.74c-3.38.83-10-4.73-12.32-8.91-.16-.29.26-3.33.59-7,.19-2.25.36-4.77.34-7.08,0-.47,1.61.39,1.61.39l3,.7,9.89,2.32a36.44,36.44,0,0,0-1.33,8.86,5.65,5.65,0,0,0,.1,1l0,.15C124.31,145.88,125.38,152.94,122.11,153.74Z" style="fill:#d3766a"></path><path d="M124,143.93l0,.15a8.77,8.77,0,0,1-1.49.09c-9.74-.14-11-12.51-11-12.51l3.85.14,9.89,2.32a36.44,36.44,0,0,0-1.33,8.86A5.65,5.65,0,0,0,124,143.93Z" style="fill:#263238"></path><path d="M108.17,115.38c-1.25,5.21,2.34,19.83,6.18,22.91,5.57,4.46,14.24,4.4,17.92-2.19,3.56-6.39-1.46-25.36-5.71-28.11C120.31,103.93,110,107.68,108.17,115.38Z" style="fill:#d3766a"></path><path d="M121.22,124.25s-.06.07,0,.11c.27,1,.41,2.14-.4,2.68,0,0,0,.07,0,.06C121.84,126.68,121.64,125.13,121.22,124.25Z" style="fill:#263238"></path><path d="M120.1,123.43c-1.62.26-1,3.48.52,3.23S121.45,123.21,120.1,123.43Z" style="fill:#263238"></path><path d="M127.05,123s.08,0,.09.07c.17,1,.53,2.12,1.49,2.27,0,0,0,.06,0,.06C127.51,125.47,127,124,127.05,123Z" style="fill:#263238"></path><path d="M127.73,121.79c1.57-.44,2.34,2.75.88,3.16S126.41,122.16,127.73,121.79Z" style="fill:#263238"></path><path d="M118.54,122.22c.41-.2.76-.45,1.15-.69s.82-.43,1-.92a.68.68,0,0,0-.28-.8,1.72,1.72,0,0,0-1.73.16,2.52,2.52,0,0,0-1.21,1.36A.74.74,0,0,0,118.54,122.22Z" style="fill:#263238"></path><path d="M128.64,119.93a12.19,12.19,0,0,1-1.34-.08,2.12,2.12,0,0,1-1.35-.34.68.68,0,0,1-.13-.83,1.7,1.7,0,0,1,1.62-.65,2.55,2.55,0,0,1,1.7.64A.74.74,0,0,1,128.64,119.93Z" style="fill:#263238"></path><path d="M122.42,133.19c.28.18.59.46,1,.41a2.55,2.55,0,0,0,1-.46,0,0,0,0,1,.06,0,1.36,1.36,0,0,1-1.16.79,1.06,1.06,0,0,1-1-.72C122.31,133.2,122.38,133.16,122.42,133.19Z" style="fill:#263238"></path><path d="M122.87,130a3.48,3.48,0,0,0,2.56,1.06,4.32,4.32,0,0,0,1.23-.19.9.9,0,0,0,.23-.08l.21-.07a.26.26,0,0,0,.16-.26h0a.17.17,0,0,0,0-.1h0l0-.09c-.13-.77-.44-1.92-.44-1.92.31.09,1.87.45,1.76,0a51.28,51.28,0,0,0-3.36-10,.09.09,0,0,0-.17.06c.7,3.18,2,6.21,2.71,9.4a5.74,5.74,0,0,0-1.7-.17c-.1,0,.64,2.21.67,2.56v0a4.76,4.76,0,0,1-3.72-.39C122.86,129.85,122.79,129.93,122.87,130Z" style="fill:#263238"></path><path d="M126.13,130.57a4.06,4.06,0,0,1-1.36,1.57,1.91,1.91,0,0,1-1.08.29c-.84-.05-1-.78-1-1.43a4.24,4.24,0,0,1,.16-1A5.28,5.28,0,0,0,126.13,130.57Z" style="fill:#263238"></path><path d="M124.77,132.14a1.91,1.91,0,0,1-1.08.29c-.84-.05-1-.78-1-1.43A1.89,1.89,0,0,1,124.77,132.14Z" style="fill:#ff98b9"></path><path d="M109.57,128.12s-5.24-8.25-4.87-13.09c.17-2.19,3.12-3.72,3.12-3.72a4.92,4.92,0,0,1,1.45-5c2.53-2.49,8.8-2.08,8.8-2.08s3.93-5.94,9.71-3.74,2.18,8.79,2.18,8.79,2.17,2.94-2.92,5.38-15.24.36-15.24.36a35.61,35.61,0,0,1,.07,10.6A3.23,3.23,0,0,1,109.57,128.12Z" style="fill:#263238"></path><path d="M119.06,104.3a10.17,10.17,0,0,0-4-.65,10.86,10.86,0,0,0-3.62.64,6,6,0,0,0-4.15,4.62,4.23,4.23,0,0,0,.86,3.16s.09,0,.06-.06c-1.36-1.61-.72-4.18.62-5.58a9.08,9.08,0,0,1,6-2.36,17.74,17.74,0,0,1,4.24.35A.06.06,0,0,0,119.06,104.3Z" style="fill:#263238"></path><path d="M131.94,103.19a4.89,4.89,0,0,0-3.47-3.06,8.33,8.33,0,0,0-5.42.3,10.61,10.61,0,0,0-4.37,3.39s0,.07.06,0a9.25,9.25,0,0,1,8.79-3.48,4.53,4.53,0,0,1,3.69,6.69,9.48,9.48,0,0,1-3.61,3.77s0,.08,0,.06a9.74,9.74,0,0,0,3.61-3.22A5.48,5.48,0,0,0,131.94,103.19Z" style="fill:#263238"></path><path d="M128.29,114.92a17.53,17.53,0,0,1-7.19,1.4,35.46,35.46,0,0,1-7.61-.88c-1.46-.32-2.9-.7-4.34-1.1,0,0-.06.06,0,.07a38.8,38.8,0,0,0,7.82,2.24,19.27,19.27,0,0,0,7.49-.23,16.15,16.15,0,0,0,3.87-1.46S128.32,114.9,128.29,114.92Z" style="fill:#263238"></path><path d="M112.06,127.24s-3.72-4.51-5.79-3.14,1,8.08,3.61,8.82a2.6,2.6,0,0,0,3.36-1.67Z" style="fill:#d3766a"></path><path d="M107.19,126s0,.06,0,.07c1.85.58,2.92,2.16,3.71,3.82a1.42,1.42,0,0,0-2.16-.22.05.05,0,0,0,0,.09,1.6,1.6,0,0,1,1.8.42,7.92,7.92,0,0,1,1,1.34c.1.16.38,0,.3-.13l0,0C111.68,129.07,109.65,126,107.19,126Z" style="fill:#263238"></path></g></svg>